<svg viewBox="0 0 48 48" fill="none" xmlns="http://www.w3.org/2000/svg" width="100%"><path d="M46.2085 29.9508C45.2285 24.9708 44.8285 20.0108 42.8885 15.3308C42.5385 14.4908 42.1285 13.9508 41.6785 13.1608C41.4185 12.7208 41.1685 12.2708 40.8385 11.8908C40.4285 11.4208 39.9285 11.0508 39.4185 10.7008C37.5085 9.37078 35.4585 8.16078 33.1985 7.60078C32.1685 7.34078 31.0585 7.23078 30.0385 7.55078C32.7385 9.62078 36.1985 10.0008 38.4985 12.5008C30.0885 8.16078 19.9986 8.33078 11.4986 12.5008C11.3486 12.5908 10.7086 12.2408 10.8386 12.1208C11.5286 11.4708 12.3186 10.9308 13.0986 10.4008C14.6986 9.33078 16.2886 8.25078 17.8886 7.18078C16.8386 7.04078 15.7986 7.38078 14.7986 7.71078C12.5886 8.45078 10.3086 9.22078 8.52856 10.7308C6.30856 12.6208 5.13856 15.3608 4.24856 18.1408C3.49856 20.5008 3.28856 24.1108 2.57856 27.1008C2.29856 28.2908 1.85857 29.4408 1.61857 30.6408C1.38857 31.8408 1.34857 33.1308 1.84857 34.2508C2.55856 35.8608 4.18856 36.8208 5.72856 37.6808C6.50856 38.1108 7.27856 38.5408 8.05856 38.9708C8.74856 39.3508 9.43856 39.7408 10.1886 40.0108C11.2386 40.3808 12.3686 40.5008 13.4786 40.3708C13.7786 40.3308 14.0986 40.2708 14.3686 40.1208C14.9086 39.8408 15.2386 39.2708 15.5386 38.7408C15.5786 38.6608 15.6286 38.5808 15.6186 38.4908C15.6086 38.3208 15.4286 38.2208 15.2686 38.1608C12.5786 37.0508 10.3586 35.0308 8.59856 32.7208C10.2386 34.3708 12.9486 35.7808 15.1786 36.4508C17.4086 37.1208 19.7486 37.3508 22.0686 37.3708C28.2685 37.4508 34.5685 36.0608 39.8585 32.8208C40.0985 32.6708 40.4185 32.5708 40.4485 32.8508C38.2285 35.1508 35.4185 37.2808 32.5185 38.6408C32.6885 39.4608 33.2985 40.1508 34.1085 40.3808C34.9185 40.6208 35.7885 40.5308 36.6185 40.3808C39.4185 39.8808 42.0985 38.6808 44.3385 36.9108C44.9585 36.4208 45.5485 35.8808 45.9485 35.2008C46.8385 33.6408 46.5485 31.7108 46.2085 29.9508ZM20.3686 27.8308C20.1586 28.7108 19.6786 29.5708 18.8986 30.0608C17.7286 30.8008 16.0486 30.5008 15.0586 29.5308C14.0986 28.5908 13.7486 27.2008 13.7086 25.8708C13.6586 24.3308 14.1086 22.5708 15.5086 21.8408C16.4786 21.3408 17.7386 21.4908 18.6386 22.1108C19.5386 22.7408 20.1986 23.9208 20.3586 24.9908C20.4886 25.8708 20.5686 26.9408 20.3686 27.8308ZM33.3285 28.5308C33.0185 28.9708 32.6485 29.3908 32.1785 29.6808C31.2785 30.2108 30.0685 30.1708 29.1685 29.6408C27.8685 28.8808 27.3085 27.2408 27.5785 25.7908C27.8385 24.3408 28.5685 23.1308 29.7385 22.1908C30.4085 21.6508 31.1285 21.4008 31.9785 21.6108C32.2685 21.6808 32.5285 21.8208 32.7785 21.9808C33.8185 22.6708 34.3985 23.8908 34.4485 25.1008C34.4885 26.3208 34.0285 27.5208 33.3285 28.5308Z" fill="#C2DEFF"></path><path d="M35.2203 41.0284C34.8073 41.0284 34.3853 40.9824 33.9683 40.8624C32.9853 40.5774 32.2413 39.7624 32.0303 38.7364C31.9843 38.5094 32.0983 38.2814 32.3083 38.1824C34.2633 37.2684 36.2623 35.9484 38.1093 34.3674C33.4343 36.7374 27.9373 37.9414 22.0653 37.8744C19.3463 37.8414 17.0463 37.5314 15.0323 36.9264C14.1383 36.6584 13.2313 36.3004 12.3643 35.8804C13.3523 36.6474 14.3853 37.2534 15.4553 37.6944C15.6133 37.7594 16.0903 37.9574 16.1213 38.4614C16.1353 38.7024 16.0323 38.8844 15.9763 38.9824C15.6903 39.4954 15.2963 40.2004 14.6023 40.5644C14.2383 40.7554 13.8403 40.8244 13.5363 40.8614C12.3583 41.0074 11.1413 40.8764 10.0183 40.4764C9.23031 40.1974 8.50931 39.7944 7.81231 39.4064L5.48731 38.1144C4.09732 37.3414 2.19432 36.2824 1.38732 34.4514C0.914318 33.3824 0.829318 32.0684 1.13332 30.5464C1.27332 29.8474 1.47532 29.1634 1.67132 28.5024C1.82032 27.9994 1.97132 27.4954 2.09232 26.9854C2.40732 25.6634 2.62432 24.2034 2.83432 22.7914C3.09932 21.0094 3.34932 19.3254 3.77632 17.9854C4.61332 15.3644 5.79431 12.4064 8.20831 10.3524C10.0873 8.75245 12.5083 7.94645 14.6453 7.23445C15.6443 6.90245 16.7773 6.52945 17.9523 6.68145C18.1583 6.70845 18.3263 6.86145 18.3733 7.06345C18.4213 7.26545 18.3393 7.47645 18.1663 7.59145L13.3833 10.8184C13.0083 11.0714 12.6313 11.3264 12.2673 11.5924C19.0433 8.55845 26.5473 8.01445 33.3653 9.94144C32.1353 9.39844 30.8763 8.82045 29.7393 7.95145C29.5923 7.83845 29.5183 7.65245 29.5503 7.46945C29.5823 7.28545 29.7133 7.13545 29.8903 7.07845C30.8543 6.76745 31.9763 6.78145 33.3213 7.11445C35.8433 7.74045 38.0603 9.13944 39.7093 10.2894C40.2303 10.6524 40.7743 11.0494 41.2163 11.5614C41.5803 11.9834 41.8503 12.4544 42.1113 12.9094C42.2493 13.1484 42.3823 13.3644 42.5103 13.5734C42.8113 14.0594 43.0953 14.5184 43.3513 15.1364C44.8033 18.6354 45.4153 22.3404 46.0073 25.9234C46.2233 27.2294 46.4403 28.5404 46.6963 29.8544C47.0703 31.7604 47.3543 33.7634 46.3823 35.4454C45.9233 36.2394 45.2473 36.8314 44.6473 37.3044C42.3403 39.1224 39.5953 40.3574 36.7083 40.8734C36.2453 40.9564 35.7393 41.0284 35.2203 41.0284ZM33.1263 38.8994C33.3373 39.3804 33.7493 39.7574 34.2463 39.9014C34.9913 40.1174 35.8183 40.0164 36.5293 39.8894C39.2553 39.4014 41.8473 38.2364 44.0253 36.5194C44.5513 36.1044 45.1393 35.5924 45.5143 34.9454C46.3133 33.5624 46.0503 31.7674 45.7133 30.0474C45.4533 28.7244 45.2353 27.4024 45.0183 26.0874C44.4093 22.3984 43.8323 18.9124 42.4243 15.5204C42.1983 14.9774 41.9473 14.5704 41.6563 14.0994C41.5223 13.8814 41.3843 13.6574 41.2403 13.4084C40.9913 12.9744 40.7573 12.5644 40.4553 12.2154C40.0903 11.7914 39.6213 11.4504 39.1343 11.1114C37.5563 10.0114 35.4423 8.67344 33.0783 8.08745C32.4583 7.93445 31.9003 7.85745 31.3963 7.85745C31.3943 7.85745 31.3913 7.85745 31.3893 7.85745C32.2383 8.35745 33.1433 8.75445 34.0273 9.14444C35.7323 9.89444 37.4953 10.6694 38.8663 12.1654C39.0303 12.3444 39.0423 12.6144 38.8953 12.8074C38.7483 12.9994 38.4843 13.0604 38.2683 12.9484C30.1713 8.77144 20.2463 8.77244 11.7173 12.9534C11.3293 13.2004 10.6373 12.7684 10.4513 12.5304C10.2333 12.2514 10.3063 11.9294 10.4913 11.7574C11.2063 11.0854 12.0183 10.5354 12.8043 10.0054L15.9643 7.87445C15.6193 7.96845 15.2813 8.08045 14.9593 8.18745C12.9093 8.87045 10.5853 9.64344 8.85531 11.1184C6.63231 13.0094 5.52232 15.8064 4.72832 18.2944C4.32532 19.5564 4.08132 21.2004 3.82232 22.9414C3.60932 24.3754 3.38832 25.8564 3.06332 27.2204C2.93732 27.7484 2.78332 28.2694 2.62832 28.7904C2.43932 29.4294 2.24232 30.0904 2.11132 30.7444C1.84832 32.0604 1.91232 33.1734 2.29932 34.0504C2.92132 35.4604 4.33032 36.3304 5.97131 37.2434L8.29931 38.5324C8.96131 38.9014 9.64531 39.2834 10.3543 39.5354C11.3323 39.8824 12.3903 39.9984 13.4133 39.8694C13.6493 39.8404 13.9193 39.7954 14.1393 39.6804C14.5093 39.4864 14.7733 39.0824 15.0423 38.6064C12.5313 37.5644 10.2293 35.6874 8.20231 33.0264C8.04231 32.8174 8.07231 32.5194 8.27131 32.3464C8.46731 32.1734 8.76631 32.1834 8.95431 32.3704C10.6073 34.0334 13.3433 35.3764 15.3203 35.9694C17.2443 36.5464 19.4553 36.8424 22.0783 36.8744C22.2383 36.8764 22.3983 36.8774 22.5573 36.8774C28.9223 36.8774 34.8033 35.3314 39.5943 32.3944C39.8553 32.2334 40.2363 32.0764 40.5763 32.2444C40.7863 32.3484 40.9223 32.5514 40.9483 32.8024C40.9643 32.9494 40.9133 33.0974 40.8093 33.2034C38.5023 35.5764 35.7893 37.5874 33.1263 38.8994Z" fill="#010101"></path><path d="M17.3907 30.9778C16.4287 30.9778 15.4417 30.6038 14.7127 29.8938C13.7837 28.9908 13.2657 27.6038 13.2107 25.8858C13.1467 23.7838 13.9187 22.1078 15.2777 21.4008C16.3767 20.8278 17.8437 20.9498 18.9267 21.7048C19.8927 22.3808 20.6647 23.6718 20.8497 24.9178C21.0367 26.1638 21.0377 27.1538 20.8507 27.9428C20.5847 29.0678 19.9867 29.9708 19.1637 30.4868C18.6377 30.8158 18.0197 30.9768 17.3907 30.9778ZM16.8077 22.0368C16.4307 22.0368 16.0617 22.1188 15.7407 22.2868C14.2427 23.0648 14.1907 25.2148 14.2117 25.8538C14.2437 26.8678 14.4777 28.2668 15.4107 29.1758C16.2797 30.0238 17.6967 30.2268 18.6347 29.6378C19.4417 29.1318 19.7607 28.2138 19.8797 27.7118C20.0327 27.0578 20.0277 26.1658 19.8627 25.0638C19.7167 24.0878 19.0977 23.0418 18.3547 22.5238C17.8947 22.2028 17.3427 22.0368 16.8077 22.0368Z" fill="#010101"></path><path d="M30.7287 30.5588C30.1017 30.5588 29.4667 30.3968 28.9187 30.0738C27.5227 29.2528 26.7677 27.4558 27.0827 25.7038C27.3647 24.1378 28.1517 22.8258 29.4237 21.8048C30.2807 21.1158 31.1587 20.8978 32.0977 21.1288C32.4187 21.2078 32.7427 21.3548 33.0567 21.5648C34.1707 22.3018 34.8967 23.6528 34.9477 25.0878C35.0037 26.6608 34.3207 27.9838 33.7397 28.8148C33.3207 29.4138 32.9057 29.8238 32.4327 30.1068C31.9297 30.4068 31.3327 30.5588 30.7287 30.5588ZM31.3957 22.0398C30.9407 22.0398 30.5037 22.2178 30.0507 22.5828C28.9727 23.4488 28.3057 24.5588 28.0677 25.8808C27.8247 27.2288 28.3837 28.5978 29.4267 29.2118C30.1967 29.6658 31.1977 29.6808 31.9187 29.2478C32.2667 29.0388 32.5847 28.7198 32.9187 28.2408C33.6177 27.2418 33.9827 26.1348 33.9467 25.1218C33.9077 24.0038 33.3537 22.9598 32.5037 22.3958C32.2837 22.2498 32.0667 22.1498 31.8577 22.0978C31.6997 22.0598 31.5467 22.0398 31.3957 22.0398Z" fill="#010101"></path></svg>