<svg viewBox="0 0 48 48" fill="none" xmlns="http://www.w3.org/2000/svg" width="100%"><path d="M18.3709 44.7543C15.5999 44.7543 13.4109 44.7993 11.6329 43.9803C10.4099 43.4183 9.43686 42.7673 8.43286 42.0133C7.64086 41.4163 6.20686 40.2383 5.40686 38.9353C4.92386 38.1473 4.77186 37.3143 4.55486 36.5853C3.05586 31.5403 3.69786 26.1443 3.27286 21.1763C3.08286 18.9593 3.43686 16.7083 3.66086 14.5103C3.70586 14.0563 3.75986 13.5923 3.83786 13.1333C4.08186 11.7183 4.54686 10.4383 5.21986 9.32726C5.66886 8.58826 6.23186 7.88926 6.89286 7.25026C7.87986 6.29926 9.02586 5.53126 10.3009 4.96526C12.4569 4.00826 14.6039 3.77126 16.7959 3.59526L20.6289 3.29526C22.9969 3.10426 25.4799 2.90326 27.9919 2.99426C30.1489 3.07126 32.2489 3.22426 34.1959 3.37826C35.0529 3.44526 36.1219 3.52926 37.2649 3.91526C39.0609 4.52326 40.6899 5.79026 41.8509 7.48426C42.7009 8.72426 43.5959 9.94826 44.0109 11.6953C44.5229 13.8473 44.3159 16.1443 44.3789 17.9703C44.3969 18.5183 44.4169 19.0633 44.4429 19.6053C44.5069 20.8793 44.5639 22.1513 44.6019 23.4233C44.6929 26.4583 44.6589 28.9873 44.4959 31.3823C44.2999 34.2943 44.4059 38.0493 41.9929 40.6193C38.6729 44.1483 33.2679 45.0103 29.9389 45.0533L29.5909 45.0553C29.5909 45.0553 28.9259 45.0503 28.5989 45.0443L27.7399 45.0343C26.3979 45.0383 25.0509 44.6533 23.6589 44.7793C22.4679 44.8883 21.4099 44.6533 20.3399 44.7023C19.7149 44.7323 19.0509 44.7543 18.3709 44.7543ZM26.6869 6.50726C24.7409 6.50726 22.7779 6.66626 20.8789 6.82026L17.0429 7.12026C15.1479 7.27226 13.4769 7.52926 11.7939 8.27626C10.8709 8.68526 10.1349 9.15526 9.42786 9.83626C8.97086 10.2773 8.59886 10.7673 8.29586 11.2653C7.83686 12.0223 7.50386 12.6053 7.33186 13.6103C7.26686 13.9903 7.22386 14.3763 7.18486 14.7593C6.97086 16.8673 6.84486 19.0143 6.81386 21.1433C6.74586 25.8623 6.87286 30.8673 8.24486 35.4863C8.39386 35.9843 8.62986 36.3543 8.92786 36.8423C9.40286 37.6153 10.1249 38.1593 10.7619 38.6393C11.6529 39.3083 12.4639 39.8953 13.3949 40.3213C14.7269 40.9353 16.1939 41.0063 18.4719 41.0063C19.0989 41.0063 19.7119 40.9863 20.2879 40.9593C21.3359 40.9113 22.3809 40.8163 23.4269 40.7213C24.9219 40.5873 26.3069 40.4623 27.7959 40.4573C28.0549 40.4573 28.3089 40.4613 28.5629 40.4653L28.7089 40.4673C29.0249 40.4723 29.3339 40.4783 29.6419 40.4783L29.9689 40.4763C32.6879 40.4423 36.2649 40.2623 38.7249 37.6473C40.4279 35.8343 40.6419 33.5113 40.7989 31.1803C40.9539 28.8933 40.9869 26.4663 40.8999 23.5403C40.8619 22.2903 40.8059 21.0413 40.7439 19.7903C40.7149 19.2283 40.6959 18.6653 40.6779 18.0993C40.6199 16.4303 40.6259 14.6263 40.1899 12.7953C39.8689 11.4483 39.3049 10.5563 38.6859 9.65526C37.9249 8.54526 37.2909 7.73526 36.1659 7.35426C35.4119 7.09926 34.6499 7.02426 33.9029 6.96526C31.9919 6.81426 29.9589 6.60026 27.8609 6.52526C27.4679 6.51326 27.0769 6.50726 26.6869 6.50726Z" fill="#C2DEFF"></path><path d="M18.3669 41.4138C16.4859 41.4138 14.6399 41.2268 13.1039 40.5198C12.1699 40.0898 11.3639 39.5058 10.4809 38.8418C9.84594 38.3628 9.12694 37.8208 8.65794 37.0578C8.35894 36.5698 8.18394 36.0248 8.04394 35.5518C6.67394 30.9408 6.54794 25.9408 6.61594 21.2248C6.64694 19.0978 6.77194 16.9538 6.98594 14.8488C7.02494 14.4628 7.06694 14.0778 7.13194 13.6958C7.30494 12.6968 7.62294 11.8098 8.07794 11.0598C8.37694 10.5658 8.75994 10.0928 9.21694 9.65283C9.91794 8.97583 10.7389 8.42583 11.6579 8.01783C13.3289 7.27583 15.1689 7.07783 17.0639 6.92483L20.8949 6.62483C23.1749 6.43983 25.5359 6.24783 27.8739 6.33183C29.9609 6.40683 32.0199 6.55683 33.9359 6.70783C34.6789 6.76583 35.4479 6.82583 36.1979 7.07983C37.3119 7.45683 38.3429 8.26983 39.0969 9.37183C39.7109 10.2678 40.1649 11.3548 40.4849 12.6958C40.9219 14.5318 40.9859 16.4188 41.0429 18.0838L41.0479 18.2418C41.0659 18.7528 41.0829 19.2638 41.1089 19.7738C41.1729 21.0228 41.2289 22.2718 41.2659 23.5218C41.3519 26.4628 41.3209 28.8878 41.1659 31.1548C41.0089 33.4778 40.6199 36.0958 38.9259 37.8988C36.4809 40.5008 32.5799 40.8468 29.8599 40.8818C29.4549 40.8858 29.0469 40.8798 28.6409 40.8728C28.3039 40.8678 27.9779 40.8618 27.6269 40.8628C26.1889 40.8678 24.7249 40.9998 23.3079 41.1288C22.2879 41.2208 21.2349 41.3168 20.1899 41.3638C19.5849 41.3948 18.9749 41.4138 18.3669 41.4138ZM26.7109 7.31283C24.7939 7.31283 22.8589 7.46983 20.9779 7.62283L17.1459 7.92183C15.2709 8.07283 13.5939 8.25283 12.0659 8.93283C11.2539 9.29283 10.5299 9.77783 9.91294 10.3728C9.51794 10.7538 9.18894 11.1588 8.93494 11.5778C8.54394 12.2218 8.26994 12.9908 8.11994 13.8648C8.05794 14.2238 8.01794 14.5868 7.98094 14.9508C7.76994 17.0258 7.64794 19.1408 7.61694 21.2398C7.54994 25.8768 7.67094 30.7848 9.00394 35.2668C9.13194 35.6978 9.27594 36.1508 9.51194 36.5358C9.88094 37.1378 10.4919 37.5988 11.0839 38.0438C11.9199 38.6718 12.6799 39.2248 13.5229 39.6118C15.3609 40.4578 17.7919 40.4718 20.1449 40.3678C21.1669 40.3198 22.2099 40.2248 23.2189 40.1348C24.6569 40.0048 26.1439 39.8698 27.6239 39.8648C27.9719 39.8638 28.3129 39.8698 28.6579 39.8748C29.0549 39.8818 29.4519 39.8888 29.8469 39.8838C32.5999 39.8488 36.0369 39.5138 38.1979 37.2148C39.6769 35.6428 40.0239 33.2358 40.1689 31.0878C40.3209 28.8558 40.3529 26.4608 40.2669 23.5528C40.2299 22.3108 40.1739 21.0678 40.1119 19.8258C40.0859 19.3098 40.0679 18.7928 40.0499 18.2768L40.0439 18.1188C39.9889 16.5018 39.9269 14.6668 39.5139 12.9288C39.2229 11.7088 38.8179 10.7318 38.2749 9.93983C37.6409 9.01483 36.7909 8.33583 35.8789 8.02883C35.2459 7.81483 34.5409 7.75883 33.8589 7.70583C31.9549 7.55683 29.9079 7.40783 27.8399 7.33383C27.4649 7.31883 27.0879 7.31283 26.7109 7.31283Z" fill="#010101"></path><path d="M26.1601 45.5451C25.1631 45.5451 24.1671 45.5221 23.1741 45.4731C22.2721 45.4301 21.3621 45.3331 20.4841 45.2391C19.5971 45.1441 18.6791 45.0461 17.7851 45.0071L16.7901 44.9671C15.3101 44.9121 13.7791 44.8561 12.2711 44.6081C11.3171 44.4521 10.3111 44.2351 9.42807 43.7041C8.78907 43.3191 8.27607 42.8101 7.77907 42.3181L5.89407 40.4501C5.43107 39.9921 4.95407 39.5181 4.59507 38.9261C4.17407 38.2271 3.97407 37.4471 3.83407 36.7771C3.33807 34.4101 3.31007 31.9911 3.35407 29.7291C3.38107 28.3331 3.26007 26.9151 3.14307 25.5421C3.07407 24.7301 3.00407 23.9171 2.96207 23.0991C2.85907 21.0581 2.79807 18.9851 2.78007 16.9401C2.75907 14.4691 2.83307 11.8701 3.96407 9.62709C5.01607 7.53709 7.00607 5.79109 9.56807 4.70909C11.9731 3.69309 14.5671 3.35109 16.7881 3.15009C17.5491 3.08209 18.3091 3.00709 19.0681 2.93309C20.6491 2.77909 22.2851 2.61909 23.9011 2.51309C25.5431 2.40709 27.2441 2.54009 28.8891 2.67009C29.5761 2.72409 30.2581 2.77809 30.9311 2.81509C33.7321 2.96509 36.9061 3.13609 39.6041 4.60109C42.3151 6.07209 44.2691 8.76109 44.8311 11.7941C45.1021 13.2591 45.1381 14.7411 45.1391 15.8691C45.1401 16.4531 45.1301 17.0371 45.1201 17.6181C45.1101 18.1871 45.1011 18.7541 45.1011 19.3131C45.1011 20.5991 45.1351 21.9011 45.1691 23.2081C45.2431 26.0171 45.3191 28.9201 45.0491 31.7231C44.8081 34.2141 44.2881 36.6711 43.5051 39.0261C43.3181 39.5861 43.1051 40.1741 42.7271 40.6861C42.3241 41.2341 41.7721 41.6351 41.2861 41.9901C40.0411 42.8931 38.7551 43.8281 37.2521 44.3671C36.2141 44.7411 35.1071 44.9051 34.1521 45.0291C31.5081 45.3731 28.8311 45.5451 26.1601 45.5451ZM25.1651 3.47609C24.7611 3.47609 24.3601 3.48709 23.9661 3.51309C22.3651 3.61709 20.7381 3.77709 19.1641 3.93009C18.4021 4.00409 17.6401 4.07809 16.8771 4.14809C14.7331 4.34109 12.2351 4.66909 9.95607 5.63209C7.61307 6.62109 5.80307 8.19909 4.85607 10.0771C3.82607 12.1221 3.75907 14.4861 3.78007 16.9321C3.79807 18.9621 3.85807 21.0201 3.96107 23.0471C4.00307 23.8541 4.07107 24.6551 4.14007 25.4561C4.25907 26.8531 4.38207 28.2991 4.35507 29.7471C4.31207 31.9491 4.33807 34.3011 4.81407 36.5701C4.93707 37.1591 5.10907 37.8381 5.45307 38.4081C5.74707 38.8931 6.18007 39.3231 6.59907 39.7381L8.48307 41.6041C8.93907 42.0551 9.41007 42.5211 9.94507 42.8431C10.6831 43.2871 11.5781 43.4781 12.4341 43.6181C13.8791 43.8551 15.3781 43.9111 16.8281 43.9651L17.8301 44.0041C18.7561 44.0451 19.6891 44.1461 20.5931 44.2421C21.4571 44.3351 22.3511 44.4301 23.2241 44.4721C26.8231 44.6451 30.4541 44.4991 34.0251 44.0351C34.9281 43.9181 35.9711 43.7641 36.9151 43.4241C38.2841 42.9341 39.5131 42.0421 40.7001 41.1801C41.1481 40.8541 41.6121 40.5161 41.9251 40.0921C42.2161 39.6961 42.3981 39.1921 42.5591 38.7081C43.3191 36.4251 43.8231 34.0421 44.0561 31.6261C44.3211 28.8841 44.2451 26.0121 44.1731 23.2331C44.1381 21.9181 44.1041 20.6071 44.1041 19.3121C44.1041 18.7481 44.1131 18.1751 44.1231 17.6001C44.1331 17.0251 44.1421 16.4471 44.1421 15.8681C44.1411 14.7831 44.1081 13.3591 43.8521 11.9741C43.3521 9.27609 41.5421 6.78609 39.1311 5.47809C36.6301 4.12209 33.5761 3.95709 30.8811 3.81109C30.2001 3.77509 29.5091 3.72009 28.8151 3.66509C27.6041 3.57309 26.3681 3.47609 25.1651 3.47609Z" fill="#010101"></path><path d="M35.8463 11.3665C35.0873 10.7335 33.9073 10.6275 32.9923 11.2045C32.3013 11.6405 32.1413 12.6605 32.5213 13.3845C33.1633 14.6055 35.4003 15.4245 36.2973 14.0615C36.5963 13.6065 36.6693 13.0225 36.5433 12.4935C36.4313 12.0245 36.1793 11.6445 35.8463 11.3665Z" fill="#C2DEFF"></path><path d="M34.9119 15.2678C34.8669 15.2678 34.8219 15.2668 34.7769 15.2639C33.6859 15.2109 32.5499 14.5179 32.0769 13.6159C31.5479 12.6119 31.8379 11.3409 32.7229 10.7809C33.7939 10.1039 35.2089 10.1869 36.1629 10.9819C36.5959 11.3429 36.8939 11.8258 37.0259 12.3768C37.1899 13.0668 37.0759 13.7809 36.7119 14.3359C36.3149 14.9389 35.6799 15.2678 34.9119 15.2678ZM34.3119 11.3268C33.9449 11.3268 33.5749 11.4259 33.2569 11.6259C32.8189 11.9029 32.6799 12.6149 32.9619 13.1489C33.2719 13.7389 34.0909 14.2289 34.8259 14.2649C35.2829 14.2779 35.6519 14.1259 35.8769 13.7859C36.0879 13.4659 36.1539 13.0248 36.0549 12.6078C35.9739 12.2678 35.7889 11.9708 35.5239 11.7488C35.1879 11.4698 34.7519 11.3268 34.3119 11.3268Z" fill="#010101"></path><path d="M24.4029 33.8315C22.6969 33.8315 20.8979 34.0425 19.4469 33.2565C18.5999 32.7965 17.9649 32.3605 17.5149 31.9545C17.3369 31.7955 16.7619 31.2845 16.6289 31.2005C14.2169 29.6875 13.5909 26.0605 13.6799 23.7725C13.7309 22.3705 14.1929 21.2365 14.5309 20.4095C14.9889 19.2765 15.6179 17.7195 16.9129 16.3975C18.3429 14.9415 20.2929 14.0635 22.5559 13.8595C23.4409 13.7795 24.3619 13.8065 25.2699 13.9375C27.2659 14.2255 29.0969 14.9575 30.5629 16.0525C32.3939 17.4195 33.6559 19.3335 34.1149 21.4405C34.9349 25.2165 33.4409 29.4735 30.4809 31.7925C28.8039 33.1085 26.6459 33.8315 24.4029 33.8315ZM23.8169 17.5175C23.5779 17.5175 23.1369 17.6635 22.8999 17.6845C21.4239 17.8175 20.6909 17.8265 19.8169 18.7175C18.9789 19.5725 18.5569 20.6915 18.1619 21.6705C17.8889 22.3405 17.3439 23.1745 17.3139 23.9985C17.2609 25.3615 17.9959 26.7795 19.2519 27.5685C19.5679 27.7655 19.6559 28.2575 19.9549 28.5255C20.3309 28.8645 20.9059 28.9795 21.4069 29.2525C23.6409 30.4625 26.1689 30.2945 28.1139 28.7715C30.0529 27.2515 30.9069 24.7675 30.3629 22.2615C30.0729 20.9295 29.5529 19.7495 28.3569 18.8565C27.3289 18.0885 26.1739 17.9515 24.7199 17.7405C24.3079 17.6805 24.2219 17.5175 23.8169 17.5175Z" fill="#C2DEFF"></path><path d="M24.4 30.4926C23.285 30.4926 22.162 30.2286 21.169 29.6906C20.674 29.4216 20.279 29.0666 19.898 28.7236C19.595 28.4506 19.309 28.1926 18.987 27.9906C17.746 27.2126 16.967 25.2476 17.018 23.9006C17.049 23.0876 17.355 22.3336 17.624 21.6686C18.02 20.6906 18.469 19.5826 19.298 18.7356C20.163 17.8536 21.394 17.3176 22.857 17.1856C23.484 17.1296 24.135 17.1486 24.793 17.2436C26.238 17.4516 27.543 17.9656 28.565 18.7296C29.752 19.6136 30.564 20.8296 30.852 22.1526C31.393 24.6406 30.349 27.6546 28.423 29.1636C27.301 30.0426 25.857 30.4926 24.4 30.4926ZM22.946 18.1826C22.093 18.2596 20.892 18.5396 20.012 19.4376C19.321 20.1416 18.929 21.1086 18.551 22.0436C18.3 22.6626 18.041 23.3016 18.017 23.9396C17.978 24.9616 18.624 26.5856 19.518 27.1446C19.913 27.3936 20.245 27.6926 20.566 27.9816C20.92 28.2996 21.254 28.6006 21.645 28.8126C23.566 29.8526 26.156 29.6676 27.805 28.3766C29.45 27.0886 30.339 24.5036 29.874 22.3656C29.64 21.2946 28.944 20.2616 27.966 19.5306C27.076 18.8666 25.929 18.4176 24.649 18.2336C24.069 18.1506 23.496 18.1336 22.946 18.1826Z" fill="#010101"></path><path d="M23.8625 34.6161C22.1575 34.6161 20.5085 34.2811 19.0165 33.6161C16.2015 32.3601 14.1325 30.0601 13.4845 27.4641C12.9885 25.4751 13.3255 23.4571 13.6735 21.9211C13.9555 20.6721 14.4255 18.8551 15.2335 17.4931C15.9295 16.3151 16.8725 15.2771 17.9605 14.4911C18.6665 13.9821 19.3935 13.6021 20.1175 13.3631C20.1205 13.3621 20.2105 13.3331 20.2185 13.3301C22.2985 12.6801 24.5905 13.0841 26.4305 13.4101C28.8645 13.8411 31.4015 15.7321 32.8375 17.4161C33.2275 17.8741 33.5025 18.2731 33.7025 18.6751C34.1325 19.5331 34.2585 20.4811 34.3295 21.3761C34.5325 23.9291 34.3135 26.1111 33.6595 28.0481C32.6305 31.0991 30.6685 33.1501 27.9855 33.9791C26.6105 34.4041 25.2195 34.6151 23.8625 34.6161ZM20.3675 13.8081L20.4365 14.3111C19.8025 14.5211 19.1675 14.8541 18.5445 15.3021C17.5675 16.0081 16.7205 16.9421 16.0935 18.0031C15.3585 19.2431 14.9165 20.9591 14.6485 22.1421C14.3245 23.5701 14.0095 25.4381 14.4555 27.2221C15.0295 29.5231 16.8875 31.5721 19.4245 32.7021C21.8805 33.7991 24.8175 33.9111 27.6915 33.0231C30.6765 32.1001 32.0695 29.6331 32.7125 27.7271C33.3215 25.9211 33.5255 23.8701 33.3335 21.4561C33.2695 20.6611 33.1615 19.8281 32.8085 19.1221C32.6455 18.7951 32.4125 18.4591 32.0765 18.0641C30.8005 16.5671 28.4335 14.7801 26.2575 14.3941C24.4325 14.0721 22.3635 13.7061 20.5185 14.2851L20.3675 13.8081Z" fill="#010101"></path></svg>