<svg class="Navigation_logo__nfj8X" width="108" height="55" viewBox="0 0 108 55" fill="none" xmlns="http://www.w3.org/2000/svg"><path d="M93.3435 5.07142L90.8059 7.62854L90.2399 4.13446C90.1438 3.43058 89.9223 2.74963 89.5859 2.1239L93.3435 5.07142Z" fill="#477DFD"></path><path d="M98.4458 22.5422L96.8159 29.667C96.589 30.9013 96.0326 32.0513 95.2055 32.9952C94.4661 33.7272 93.49 34.1715 92.4524 34.2484C91.4149 34.3254 90.3839 34.0298 89.5447 33.4148L85.6992 30.3892L86.1287 30.4868H86.4117C86.6167 30.4868 86.8119 30.4868 87.0168 30.4868C88.0155 30.4835 88.9831 30.1392 89.7594 29.5108C90.8521 28.5765 91.5897 27.2944 91.848 25.8801L93.517 18.5894L98.4458 22.5422Z" fill="#477DFD"></path><path d="M105.786 13.5334L105.679 13.67L98.5929 22.2491L93.7129 18.4036L100.779 9.83432C101.392 9.09791 101.841 8.23956 102.097 7.31625C102.352 6.28888 102.227 5.20404 101.745 4.26135L105.649 7.33575C106.03 7.62321 106.346 7.98699 106.578 8.40379C106.81 8.8206 106.953 9.28126 106.996 9.75625C107.109 11.1258 106.673 12.4841 105.786 13.5334Z" fill="#477DFD"></path><path d="M101.765 7.24895C101.516 8.12186 101.087 8.93304 100.506 9.63039L93.2447 18.4144L91.5367 25.8808C91.2965 27.2205 90.6082 28.4388 89.5847 29.3359C89.1508 29.6785 88.6524 29.9302 88.1192 30.0761C87.586 30.222 87.0288 30.259 86.481 30.185H86.2175C85.7023 30.1091 85.2081 29.9289 84.765 29.6553C84.322 29.3818 83.9394 29.0207 83.6408 28.5941C83.2835 27.9734 83.0553 27.2869 82.9697 26.5758C82.8842 25.8647 82.9431 25.1436 83.1431 24.4559L84.5973 18.0435L81.7669 6.3315C80.7909 2.99357 83.1821 -0.25652 86.5688 0.377882C87.2309 0.478155 87.856 0.747054 88.3842 1.1587C89.277 1.9227 89.8372 3.00446 89.9458 4.17455L90.5119 7.68816L90.6388 8.35183L91.0194 7.89311L93.9474 4.96511C95.6456 3.0131 96.8754 2.3299 98.4565 2.5251C99.0213 2.57721 99.568 2.75174 100.059 3.0366C100.549 3.32146 100.972 3.70979 101.297 4.17455C101.576 4.63002 101.761 5.13656 101.841 5.66449C101.921 6.19242 101.896 6.73111 101.765 7.24895Z" fill="#F5FDFF"></path><path d="M107.329 9.71765C107.284 9.19899 107.13 8.69568 106.878 8.24012C106.625 7.78457 106.281 7.3869 105.865 7.07269L100.761 3.10036C100.172 2.63052 99.4736 2.31817 98.7309 2.19268H98.4771C96.8374 1.98772 95.3246 2.84658 93.5971 4.85715L88.7171 1.0117C88.1219 0.524472 87.4077 0.204468 86.6479 0.0845125C83.0172 -0.588929 80.421 2.87589 81.4751 6.4383L84.286 18.0429L82.8025 24.3577C82.5902 25.0868 82.5292 25.8517 82.6232 26.6052C82.7172 27.3588 82.9642 28.0853 83.3491 28.7399C83.67 29.2237 84.0973 29.6277 84.5983 29.9209L89.3417 33.659C90.2832 34.3529 91.4501 34.6696 92.6132 34.5468C93.7763 34.424 94.8514 33.8705 95.6272 32.9953C96.2939 32.1837 96.7707 31.2333 97.0228 30.2137L98.7796 22.5228L106.041 13.7388L106.139 13.6119C106.907 12.6377 107.333 11.4368 107.349 10.1959C107.352 10.0362 107.346 9.87652 107.329 9.71765ZM93.3433 5.06213L90.8057 7.61925L90.2396 4.12515C90.1436 3.42127 89.9221 2.74031 89.5857 2.11458L93.3433 5.06213ZM83.5833 28.5643C83.226 27.9435 82.9977 27.257 82.9122 26.5459C82.8267 25.8348 82.8856 25.1138 83.0855 24.426L84.5398 18.0137L81.7094 6.30164C80.7334 2.96371 83.1246 -0.286379 86.5113 0.348022C87.1734 0.448296 87.7985 0.717195 88.3267 1.12884C89.2195 1.89284 89.7797 2.9746 89.8883 4.14469L90.4543 7.6583L90.5812 8.32197L90.9619 7.86325L93.8899 4.93525C95.5881 2.98324 96.8179 2.30004 98.399 2.49524C98.9638 2.54735 99.5105 2.72188 100.001 3.00674C100.491 3.2916 100.914 3.67993 101.239 4.14469C101.525 4.60256 101.716 5.11345 101.8 5.64675C101.884 6.18006 101.859 6.72481 101.727 7.24837C101.478 8.12128 101.049 8.93246 100.468 9.62981L93.2067 18.4138L91.4987 25.8802C91.2585 27.2199 90.5702 28.4382 89.5467 29.3353C89.1128 29.6779 88.6144 29.9296 88.0812 30.0755C87.548 30.2214 86.9908 30.2584 86.443 30.1844H86.1795C85.6645 30.1049 85.1712 29.9211 84.7298 29.6442C84.2884 29.3673 83.9082 29.0031 83.6126 28.574L83.5833 28.5643ZM96.7886 29.6574C96.5617 30.8917 96.0053 32.0417 95.1782 32.9855C94.4389 33.7175 93.4627 34.1619 92.4252 34.2388C91.3876 34.3158 90.3566 34.0202 89.5174 33.4052L85.6719 30.3796L86.1014 30.4772H86.3844C86.5894 30.4772 86.7846 30.4772 86.9895 30.4772C87.9882 30.4739 88.9558 30.1295 89.7321 29.5012C90.8248 28.5669 91.5624 27.2848 91.8208 25.8705L93.4897 18.5797L98.4185 22.435L96.7886 29.6574ZM105.758 13.5241L105.651 13.6607L98.5649 22.2397L93.6849 18.3943L100.751 9.825C101.364 9.08859 101.813 8.23024 102.069 7.30692C102.324 6.27956 102.199 5.19472 101.717 4.25203L105.621 7.32643C106.002 7.61389 106.318 7.97767 106.55 8.39447C106.782 8.81128 106.925 9.27194 106.968 9.74693C107.091 11.1158 106.667 12.4776 105.787 13.5338L105.758 13.5241Z" fill="black"></path><path d="M86.7463 12.1578C86.9485 12.885 87.0407 13.6384 87.0196 14.3929C87.0291 15.8021 86.53 17.1674 85.6141 18.2383C85.2321 18.6571 84.7837 19.0099 84.2868 19.2826L83.7109 21.83L84.765 22.3668C85.03 22.5146 85.273 22.6986 85.4873 22.9134C85.9414 23.413 86.287 24.0015 86.502 24.6416C86.717 25.2817 86.7969 25.9594 86.7365 26.6319L86.6585 29.9406C86.6533 30.0316 86.6533 30.1229 86.6585 30.2139C87.7085 30.314 88.7569 30.0065 89.5865 29.355C90.61 28.4579 91.2983 27.2396 91.5385 25.8999L93.2465 18.4335L86.7463 12.1578Z" fill="#DBE3E5"></path><path d="M76.7706 27.7543C76.906 27.9531 77.0867 28.117 77.2976 28.2325C77.5942 28.2339 77.8806 28.1247 78.1008 27.9261C78.321 27.7276 78.4592 27.454 78.4884 27.1589L78.5762 23.3818L76.712 22.4058C76.7706 22.9816 76.3997 27.4029 76.7706 27.7543Z" fill="black"></path><path d="M77.8529 14.5292C77.5779 14.5717 77.3297 14.7185 77.16 14.9391C76.9858 15.1951 76.8939 15.4981 76.8964 15.8077L76.8379 18.5015L79.6 19.8777C79.3001 19.7331 79.039 19.5189 78.8387 19.253V15.5442C78.8611 15.4038 78.8438 15.2598 78.7886 15.1287C78.7334 14.9976 78.6425 14.8846 78.5264 14.8025L77.9993 14.5389H77.892L77.8529 14.5292Z" fill="black"></path><path d="M83.0648 21.8693C82.6721 21.8304 82.2765 21.8304 81.8838 21.8693C80.8005 21.9962 79.2779 22.289 78.5459 23.3723L76.8379 22.5037L76.9257 18.7168L83.0648 21.8693Z" fill="#477DFD"></path><path d="M81.5828 7.54118C80.3958 7.29179 79.1764 7.23578 77.9716 7.37527C71.5202 8.09751 68.4165 12.9482 68.2116 22.2886C68.0944 26.8172 68.6996 30.282 70.0074 32.5854C70.2472 33.006 70.5284 33.4016 70.8468 33.7664L69.0802 32.8782C65.9863 31.3264 62.1408 29.3939 61.4088 27.9982C59.7301 25.3923 59.3007 19.1068 59.8667 14.7831C60.2279 10.6254 61.8187 7.2191 64.2295 5.1695C65.2519 4.34113 66.4333 3.73103 67.7007 3.37684C68.968 3.02265 70.2945 2.9319 71.5983 3.11015C73.5015 3.13943 78.5572 5.88197 81.5828 7.54118Z" fill="#477DFD"></path><path d="M85.2527 23.1471C85.6714 23.6188 85.9888 24.1714 86.1853 24.7708C86.3817 25.3701 86.4529 26.0034 86.3946 26.6314L86.3165 29.9303C86.3725 30.9659 86.0543 31.9871 85.4201 32.8077C84.7858 33.6283 83.8778 34.1936 82.8615 34.4004C80.9095 34.742 80.0701 33.8636 78.6744 33.3073C77.9874 34.215 77.0079 34.8575 75.9017 35.126C74.7955 35.3946 73.6304 35.2727 72.6037 34.7811C72.3777 34.6704 72.1622 34.5398 71.9595 34.3907C71.2569 33.87 70.6744 33.2042 70.2515 32.4387C68.9827 30.1841 68.3874 26.7778 68.4947 22.3077C68.7485 12.5477 72.184 7.76531 79.3088 7.66771C80.688 7.64082 82.0546 7.93485 83.3007 8.52659L83.4276 8.59492C83.7694 8.77248 84.0958 8.97815 84.4036 9.20981C85.1777 9.83251 85.7917 10.6314 86.1941 11.5398C86.5965 12.4482 86.7757 13.4396 86.7167 14.4314C86.7233 15.7615 86.2523 17.0499 85.3893 18.0621C84.6008 18.9111 83.5482 19.4684 82.4028 19.6433L81.9636 19.7116C80.9876 19.8189 79.6797 19.9556 78.9477 19.126L79.0356 15.7002C79.0497 15.5219 79.0257 15.3427 78.9651 15.1744C78.9045 15.0061 78.8087 14.8526 78.6842 14.7242C78.5742 14.6257 78.4432 14.5534 78.3012 14.5128C78.1592 14.4723 78.0098 14.4645 77.8644 14.49H77.7668C77.609 14.5142 77.4577 14.5699 77.3219 14.6537C77.1861 14.7375 77.0685 14.8478 76.9762 14.978C76.7774 15.264 76.6749 15.6058 76.6834 15.954L76.4101 27.2659C76.3971 27.4433 76.4208 27.6214 76.4795 27.7893C76.5383 27.9572 76.6309 28.1113 76.7517 28.2419C76.8642 28.3364 76.9954 28.4061 77.1366 28.4464C77.2779 28.4868 77.4261 28.4969 77.5716 28.4761H77.6692C77.9945 28.4105 78.2849 28.2287 78.4861 27.9647C78.6872 27.7007 78.7854 27.3725 78.7623 27.0414C79.1244 27.4909 79.6112 27.8234 80.1617 27.997C80.7122 28.1707 81.3017 28.1778 81.8562 28.0174C81.877 28.0131 81.8965 28.0044 81.9136 27.9918C81.9306 27.9792 81.9447 27.9631 81.9549 27.9445C81.9651 27.926 81.9712 27.9054 81.9727 27.8843C81.9742 27.8632 81.9711 27.842 81.9636 27.8221C81.959 27.8013 81.9503 27.7816 81.9379 27.7643C81.9254 27.7469 81.9096 27.7324 81.8913 27.7214C81.873 27.7104 81.8527 27.7033 81.8315 27.7005C81.8104 27.6977 81.7889 27.6992 81.7684 27.705C81.2074 27.8713 80.6069 27.8455 80.0622 27.6315C79.5176 27.4175 79.0601 27.0278 78.7623 26.5241C78.6431 26.3328 78.5511 26.1258 78.489 25.9092C78.3823 25.5366 78.3585 25.1452 78.4192 24.7625C78.4799 24.3797 78.6236 24.0149 78.8404 23.6937C79.504 22.7177 80.9388 22.4444 81.9538 22.3273C82.5299 22.2064 83.1259 22.2173 83.6972 22.3593C84.2684 22.5013 84.8002 22.7706 85.2527 23.1471Z" fill="#F5FDFF"></path><path d="M84.754 22.4055L80.196 20.0728C80.7913 20.1249 81.3906 20.1086 81.9821 20.024L82.4408 19.9557C83.6578 19.765 84.7751 19.1702 85.6129 18.2672C86.5266 17.1988 87.0254 15.8373 87.0183 14.4315C87.1036 13.1755 86.8179 11.9221 86.1967 10.8272C85.5755 9.73225 84.6461 8.844 83.5242 8.27293L82.1578 7.53119C79.1615 5.88175 73.5885 2.79756 71.5682 2.84636C70.2252 2.66613 68.8595 2.76282 67.5552 3.13042C66.251 3.49803 65.0358 4.12876 63.9846 4.98381C61.4568 7.09197 59.8659 10.5763 59.5048 14.8122C58.9387 19.1944 59.3779 25.5482 61.0957 28.2224C61.8667 29.6767 65.761 31.6287 68.9037 33.2C70.0066 33.7564 71.0021 34.2541 71.7439 34.6738C72.5886 35.3074 73.616 35.6498 74.6719 35.6498C75.4469 35.6627 76.2149 35.5 76.918 35.1737C77.6212 34.8475 78.2414 34.3663 78.732 33.7661C80.0984 34.3322 80.9183 35.113 82.88 34.7421C83.9695 34.5217 84.9438 33.9179 85.626 33.0404C86.3083 32.1629 86.6534 31.0699 86.5986 29.9597L86.6865 26.6511C86.7439 25.9787 86.6626 25.3018 86.4477 24.6621C86.2328 24.0225 85.8889 23.4338 85.4372 22.9325C85.2314 22.7301 85.002 22.5531 84.754 22.4055ZM83.0655 21.8687C82.6728 21.8298 82.2772 21.8298 81.8845 21.8687C80.8012 21.9955 79.2786 22.2883 78.5466 23.3717C78.2988 23.7305 78.1342 24.1403 78.065 24.5708C77.9957 25.0014 78.0236 25.4421 78.1464 25.8605C78.213 26.0848 78.3047 26.3009 78.4197 26.5047V26.9536C78.4491 27.2095 78.3811 27.4671 78.2292 27.6751C78.0772 27.883 77.8526 28.0262 77.5999 28.076H77.5218C77.4218 28.0917 77.3195 28.0859 77.2219 28.059C77.1243 28.0321 77.0335 27.9846 76.9557 27.9199C76.8653 27.8166 76.7978 27.6954 76.7574 27.5642C76.717 27.433 76.7048 27.2948 76.7215 27.1586L76.9264 18.7064L83.0655 21.8687ZM78.6344 19.2432L76.9264 18.3746L76.985 15.876C76.9821 15.6025 77.0602 15.3342 77.2095 15.1049C77.3568 14.9155 77.5687 14.7869 77.8048 14.7438H77.8829C77.9822 14.7248 78.0845 14.7281 78.1824 14.7534C78.2803 14.7787 78.3713 14.8255 78.449 14.8902C78.5394 14.9935 78.6069 15.1147 78.6473 15.2459C78.6877 15.3771 78.6999 15.5153 78.6832 15.6515L78.6052 19.2042L78.6344 19.2432ZM69.0403 32.9073C65.9464 31.3554 62.1009 29.4229 61.3689 28.0272C59.6902 25.4213 59.2608 19.1359 59.8269 14.8122C60.188 10.6544 61.7789 7.24814 64.1896 5.19853C65.2121 4.37017 66.3934 3.76006 67.6608 3.40588C68.9281 3.05169 70.2546 2.96094 71.5584 3.13918C73.5104 3.13918 78.5173 5.88173 81.5429 7.54093C80.356 7.29155 79.1365 7.23554 77.9317 7.37503C71.4803 8.09727 68.3766 12.948 68.1717 22.2883C68.0546 26.817 68.6597 30.2818 69.9675 32.5852C70.2074 33.0057 70.4885 33.4014 70.8069 33.7661L69.0403 32.9073ZM86.3156 29.9792C86.3715 31.0149 86.0534 32.0361 85.4191 32.8566C84.7849 33.6772 83.8768 34.2425 82.8605 34.4493C80.9085 34.7909 80.0692 33.9125 78.6735 33.3562C77.9865 34.2639 77.007 34.9064 75.9007 35.1749C74.7945 35.4435 73.6295 35.3216 72.6027 34.83C72.3768 34.7194 72.1612 34.5887 71.9586 34.4396C71.2559 33.9189 70.6734 33.2531 70.2506 32.4875C68.9818 30.233 68.3864 26.8268 68.4938 22.3567C68.7475 12.5966 72.1831 7.81423 79.3079 7.71663C80.6871 7.68974 82.0536 7.98375 83.2997 8.57549L83.4266 8.64382C83.7684 8.82137 84.0949 9.02705 84.4026 9.2587C85.1768 9.88141 85.7907 10.6803 86.1931 11.5887C86.5955 12.4971 86.7747 13.4886 86.7157 14.4803C86.7224 15.8105 86.2514 17.0988 85.3884 18.1111C84.5998 18.96 83.5472 19.5173 82.4018 19.6922L81.9626 19.7605C80.9866 19.8679 79.6788 20.0045 78.9468 19.1749L79.0346 15.7491C79.0487 15.5708 79.0247 15.3915 78.9641 15.2233C78.9035 15.055 78.8078 14.9015 78.6832 14.7731C78.5732 14.6746 78.4423 14.6023 78.3002 14.5617C78.1582 14.5212 78.0089 14.5133 77.8634 14.5389H77.7658C77.608 14.5631 77.4568 14.6187 77.3209 14.7026C77.1851 14.7864 77.0676 14.8967 76.9752 15.0269C76.7765 15.3129 76.6739 15.6547 76.6824 16.0029L76.4091 27.3147C76.3962 27.4922 76.4198 27.6703 76.4786 27.8382C76.5373 28.0061 76.63 28.1602 76.7507 28.2908C76.8632 28.3853 76.9944 28.455 77.1357 28.4953C77.2769 28.5357 77.4251 28.5458 77.5706 28.525H77.6682C77.9936 28.4594 78.284 28.2777 78.4851 28.0136C78.6863 27.7496 78.7844 27.4214 78.7613 27.0903C79.1234 27.5398 79.6103 27.8723 80.1607 28.0459C80.7112 28.2196 81.3008 28.2267 81.8552 28.0663C81.876 28.062 81.8956 28.0533 81.9126 28.0407C81.9296 28.0281 81.9438 28.012 81.954 27.9934C81.9642 27.9749 81.9702 27.9543 81.9717 27.9332C81.9732 27.9121 81.9701 27.8909 81.9626 27.8711C81.9581 27.8502 81.9493 27.8305 81.9369 27.8132C81.9245 27.7959 81.9086 27.7813 81.8903 27.7703C81.872 27.7593 81.8517 27.7522 81.8306 27.7494C81.8094 27.7466 81.7879 27.7481 81.7674 27.754C81.2064 27.9203 80.6059 27.8944 80.0613 27.6804C79.5167 27.4664 79.0591 27.0767 78.7613 26.573C78.6421 26.3817 78.5502 26.1748 78.488 25.9581C78.3813 25.5856 78.3575 25.1942 78.4182 24.8114C78.4789 24.4287 78.6227 24.0638 78.8394 23.7426C79.5031 22.7666 80.9378 22.4933 81.9528 22.3762C82.5453 22.2714 83.1539 22.305 83.7313 22.4743C84.3086 22.6436 84.839 22.944 85.281 23.3522C85.6997 23.8239 86.0171 24.3765 86.2136 24.9758C86.41 25.5752 86.4813 26.2085 86.4229 26.8365L86.3156 29.9792Z" fill="black"></path><path d="M63.0488 6.32175C64.3443 6.94559 65.462 7.8854 66.2989 9.05458C66.9528 9.99271 67.4414 11.0358 67.7434 12.1387V12.3437C67.8901 12.8851 67.9978 13.4363 68.0655 13.9931C68.1486 14.6146 68.1975 15.2402 68.2119 15.8671V15.9939C68.2564 20.0609 67.319 24.0787 65.4791 27.706C65.1847 28.2452 64.8588 28.7667 64.5031 29.2676L69.6271 31.9809C69.3821 31.4669 69.1766 30.9351 69.0122 30.39L68.9048 30.1948V29.9313C68.2811 27.4245 68.0279 24.84 68.1533 22.2599C68.3192 16.0232 69.7637 11.7971 72.6234 9.45474L64.3664 5.02368L64.1712 5.17008C63.7703 5.52695 63.3953 5.9118 63.0488 6.32175Z" fill="#2D63E3"></path><path d="M24.573 20.0834C22.6785 21.9638 20.2275 23.1824 17.5848 23.558L12.1777 20.1908C18.6194 18.961 22.1525 14.6666 21.6157 8.65441C21.5399 7.63709 21.3231 6.63522 20.9715 5.67758C20.6555 4.82156 20.2004 4.02355 19.6246 3.31567L23.6067 5.81424C27.9207 8.98625 28.0963 16.2477 24.573 20.0834Z" fill="#477DFD"></path><path d="M17.8878 29.9504C17.8878 30.1749 17.8878 30.3993 17.8878 30.6141C17.7812 31.7 17.3138 32.7189 16.5601 33.508C15.8064 34.2971 14.81 34.8107 13.7301 34.967C12.6871 35.171 11.6054 34.9908 10.685 34.4595L6.24414 31.6291C6.54629 31.6887 6.85361 31.7181 7.16158 31.7169C7.48843 31.7159 7.81472 31.6898 8.13758 31.6388C8.82246 31.5386 9.48081 31.3042 10.0749 30.949C10.669 30.5938 11.1872 30.1249 11.5997 29.5691C12.0123 29.0133 12.3111 28.3816 12.479 27.7101C12.647 27.0386 12.6807 26.3405 12.5784 25.656L12.1197 20.4929L17.4486 23.8016L17.9366 29.3355C17.8781 29.56 17.8878 29.7552 17.8878 29.9504Z" fill="#477DFD"></path><path d="M23.783 5.55056L18.6492 2.31999C18.4735 2.17359 18.2978 2.03694 18.1124 1.91006C16.0823 0.494854 13.2324 0.0458969 9.84566 0.602218L5.37557 1.34399C4.6907 1.44425 4.03234 1.67867 3.43824 2.03385C2.84414 2.38902 2.32597 2.85794 1.91342 3.41374C1.50088 3.96953 1.20208 4.60129 1.03414 5.27278C0.866202 5.94427 0.83243 6.64229 0.93476 7.32686L2.69156 27.2861C2.71539 27.9757 2.88516 28.6523 3.18966 29.2714C3.49417 29.8905 3.9265 30.438 4.45813 30.8778C4.60417 30.9963 4.76102 31.1009 4.92661 31.1901L10.4703 34.7623C11.6931 35.407 13.1193 35.5484 14.4449 35.1564C15.7705 34.7643 16.8904 33.8699 17.5658 32.6639C18.0073 31.8214 18.232 30.8822 18.2198 29.9311C18.2297 29.7327 18.2297 29.5341 18.2198 29.3357L17.7415 23.8701C21.343 23.2552 25.003 21.2642 26.5255 17.7701C28.1457 13.7685 27.5113 8.20528 23.783 5.55056ZM4.65333 30.6338C4.16451 30.2198 3.7678 29.7081 3.48876 29.1315C3.20971 28.5549 3.05452 27.9263 3.03316 27.2861L1.27636 7.31712C1.17815 6.67344 1.20819 6.01668 1.36476 5.38465C1.52133 4.75263 1.80133 4.15781 2.18866 3.63441C2.57599 3.11102 3.063 2.6694 3.62166 2.33494C4.18033 2.00048 4.79961 1.77977 5.44389 1.68557L9.86518 0.934055C10.7363 0.790324 11.6175 0.715256 12.5004 0.709564C14.4044 0.640424 16.2842 1.15464 17.8879 2.18334C18.9107 2.95021 19.7467 3.93859 20.3332 5.07444C20.9197 6.21029 21.2416 7.46416 21.2747 8.74207C21.8017 14.6566 18.2588 18.8535 11.8269 19.9759H11.6805V20.2784L12.1588 25.6855C12.2556 26.3297 12.2242 26.9867 12.0665 27.6188C11.9088 28.2508 11.6278 28.8456 11.2397 29.3688C10.8516 29.892 10.364 30.3335 9.80486 30.6678C9.24573 31.0021 8.62609 31.2227 7.9815 31.317C7.40973 31.4408 6.81843 31.444 6.24537 31.3264C5.6723 31.2087 5.13008 30.9728 4.65333 30.6338ZM17.8684 29.3748C17.8684 29.5602 17.8684 29.7554 17.8684 29.9506C17.8684 30.1458 17.8684 30.3996 17.8684 30.6143C17.7618 31.7002 17.2943 32.7192 16.5406 33.5082C15.787 34.2973 14.7906 34.811 13.7106 34.9673C12.6676 35.1712 11.586 34.991 10.6655 34.4597L6.22469 31.6293C6.52684 31.689 6.83416 31.7184 7.14213 31.7172C7.46898 31.7161 7.79527 31.69 8.11814 31.6391C8.80301 31.5388 9.46136 31.3044 10.0555 30.9492C10.6496 30.5941 11.1677 30.1251 11.5803 29.5693C11.9928 29.0135 12.2916 28.3818 12.4596 27.7103C12.6275 27.0388 12.6613 26.3407 12.5589 25.6562L12.1002 20.4931L17.4292 23.8018L17.8684 29.3748ZM24.5735 20.0832C22.679 21.9636 20.2281 23.1823 17.5854 23.5578L12.1783 20.1906C18.6199 18.9608 22.1531 14.6664 21.6163 8.65424C21.5405 7.63692 21.3237 6.63504 20.9721 5.67741C20.6561 4.82139 20.201 4.02338 19.6252 3.3155L23.6073 5.81407C27.9212 8.98607 28.0969 16.2475 24.5735 20.0832Z" fill="black"></path><path d="M21.2755 8.74181C21.2426 7.47212 20.9247 6.22606 20.3452 5.09583C19.7657 3.96561 18.9396 2.98015 17.9278 2.21236C16.324 1.18365 14.4443 0.669442 12.5402 0.738582C11.6451 0.732531 10.7508 0.797816 9.866 0.933795L5.38615 1.67557C4.74187 1.76977 4.12258 1.99045 3.56392 2.32491C3.00526 2.65937 2.51825 3.10102 2.13092 3.62441C1.74359 4.14781 1.46358 4.74263 1.30701 5.37465C1.15044 6.00668 1.1204 6.66341 1.21861 7.30709L3.03398 27.2859C3.05505 27.9309 3.21198 28.5642 3.49453 29.1444C3.77707 29.7246 4.17887 30.2387 4.67366 30.6531C5.15101 31.0028 5.69678 31.248 6.27533 31.3724C6.85387 31.4969 7.45216 31.4979 8.03111 31.3753C8.67571 31.281 9.29535 31.0604 9.85448 30.7261C10.4136 30.3918 10.9012 29.9503 11.2893 29.4271C11.6774 28.9039 11.9584 28.3092 12.1161 27.6771C12.2738 27.045 12.3052 26.388 12.2084 25.7438L11.7302 20.3367V20.0342H11.8766C18.2596 18.8239 21.8025 14.5978 21.2755 8.74181ZM11.5154 13.9927H11.2617C11.0224 13.9993 10.7881 13.9235 10.598 13.778C10.4588 13.656 10.3469 13.506 10.2695 13.3378C10.1922 13.1697 10.1511 12.9871 10.149 12.802L9.77816 8.58565C9.74585 8.41504 9.74784 8.23972 9.78402 8.06989C9.82019 7.90005 9.88983 7.73912 9.98886 7.59648C10.0879 7.45384 10.2143 7.33234 10.3608 7.23909C10.5073 7.14583 10.6709 7.08268 10.842 7.05332C11.0001 7.01967 11.1634 7.01966 11.3215 7.05329C11.4796 7.08692 11.6288 7.15345 11.7594 7.24853C11.9019 7.36841 12.0166 7.51773 12.0958 7.68622C12.175 7.85471 12.2168 8.03837 12.2182 8.22453L12.5793 12.4409C12.6101 12.6102 12.6069 12.7839 12.57 12.952C12.533 13.1201 12.463 13.2791 12.364 13.4199C12.265 13.5607 12.139 13.6804 11.9933 13.772C11.8476 13.8636 11.6852 13.9254 11.5154 13.9537V13.9927Z" fill="#F5FDFF"></path><path d="M12.6177 12.4211L12.2566 8.20476C12.2552 8.01859 12.2135 7.83494 12.1343 7.66645C12.0551 7.49796 11.9403 7.34864 11.7979 7.22876C11.6672 7.13368 11.518 7.06715 11.36 7.03352C11.2019 6.99989 11.0385 6.9999 10.8805 7.03355C10.7058 7.05826 10.538 7.11804 10.3871 7.20928C10.2362 7.30052 10.1052 7.42135 10.0022 7.5645C9.89919 7.70764 9.82618 7.87013 9.78757 8.04222C9.74897 8.21431 9.74557 8.39244 9.77758 8.56588L10.1485 12.7822C10.1505 12.9673 10.1916 13.1499 10.269 13.3181C10.3463 13.4862 10.4582 13.6362 10.5974 13.7582C10.7875 13.9037 11.0218 13.9795 11.2611 13.9729H11.5149C11.6921 13.9498 11.8626 13.8903 12.0158 13.7982C12.169 13.7062 12.3015 13.5834 12.405 13.4377C12.5086 13.292 12.5809 13.1265 12.6175 12.9516C12.6541 12.7767 12.6542 12.596 12.6177 12.4211ZM11.4661 13.6216C11.3543 13.648 11.2382 13.6503 11.1255 13.6284C11.0127 13.6066 10.9059 13.561 10.8121 13.4947C10.708 13.4032 10.6246 13.2906 10.5674 13.1644C10.5102 13.0382 10.4805 12.9013 10.4803 12.7627L10.1094 8.54634C10.0798 8.41303 10.0785 8.27501 10.1056 8.14117C10.1327 8.00733 10.1876 7.88067 10.2667 7.76936C10.3458 7.65806 10.4474 7.56459 10.5649 7.49501C10.6824 7.42542 10.8132 7.38125 10.9488 7.36538H11.144C11.3122 7.35961 11.4774 7.41123 11.6125 7.51178C11.8154 7.70238 11.9347 7.96553 11.9443 8.24378L12.3054 12.4601C12.332 12.592 12.331 12.7281 12.3024 12.8596C12.2739 12.9911 12.2185 13.1153 12.1397 13.2243C12.0608 13.3334 11.9603 13.425 11.8444 13.4934C11.7285 13.5617 11.5997 13.6054 11.4661 13.6216Z" fill="black"></path><path d="M11.4861 13.7874C10.8127 13.9045 10.3735 13.5238 10.3051 12.8113L9.93426 8.59501C9.90353 8.44127 9.90479 8.28283 9.93796 8.12959C9.97113 7.97635 10.0355 7.83159 10.1271 7.70431C10.2186 7.57704 10.3354 7.46998 10.4702 7.38981C10.6049 7.30965 10.7547 7.25809 10.9103 7.23835C11.5837 7.12123 12.0229 7.50187 12.0912 8.21436L12.4621 12.4307C12.4928 12.5844 12.4916 12.7429 12.4584 12.8961C12.4252 13.0494 12.3609 13.1941 12.2693 13.3214C12.1777 13.4487 12.0609 13.5557 11.9262 13.6359C11.7914 13.716 11.6416 13.7676 11.4861 13.7874Z" fill="black"></path><path d="M17.8392 17.8188C17.5074 18.0726 17.156 18.3068 16.7949 18.5313L21.4017 22.4061L21.2455 12.9193C20.6731 14.8794 19.4772 16.5995 17.8392 17.8188Z" fill="#2D63E3"></path><path d="M9.78675 37.6501C10.2581 37.6238 10.7306 37.6238 11.202 37.6501C11.6993 37.7244 12.1891 37.8419 12.666 38.0015C14.0435 38.4065 15.22 39.3115 15.9648 40.5391C16.1811 40.8588 16.3519 41.207 16.4724 41.5737C16.5295 42.0045 16.5295 42.4409 16.4724 42.8717C16.4475 43.2956 16.3721 43.715 16.2479 44.121C16.1229 44.4092 15.944 44.6709 15.7208 44.8921C15.3298 45.2863 14.8784 45.6158 14.3837 45.8681C13.9169 46.028 13.502 46.3113 13.1832 46.6879C12.9273 47.2292 12.7845 47.817 12.7636 48.4154C12.7636 48.5521 12.7636 48.7863 12.705 49.1377C12.6464 49.489 12.6562 49.7916 12.6269 50.0356L12.4805 51.4313C12.4429 51.9345 12.3646 52.4339 12.2463 52.9246C12.2115 53.0141 12.1591 53.0958 12.092 53.1645C12.0249 53.2333 11.9446 53.2878 11.8559 53.3247C11.4375 53.4265 11.0033 53.4464 10.5773 53.3833C10.2178 53.3479 9.86388 53.2692 9.52323 53.149C9.35623 53.0963 9.2065 52.9996 9.08973 52.8691C8.97295 52.7386 8.89345 52.5791 8.85955 52.4073C8.72563 51.6997 8.66675 50.98 8.68387 50.2601C8.68387 48.3764 8.48867 45.9657 8.18611 43.0474C8.02214 41.9321 7.93085 40.8074 7.91282 39.6802C7.90838 39.4191 7.92469 39.158 7.96162 38.8994C7.95939 38.7155 7.99656 38.5333 8.07063 38.3649C8.1447 38.1966 8.25396 38.046 8.39106 37.9234C8.82402 37.7107 9.30556 37.6164 9.78675 37.6501ZM12.5879 40.949C12.3724 40.8446 12.1467 40.7629 11.9144 40.705C11.7192 40.705 11.6021 40.8026 11.5728 41.0661C11.5587 41.222 11.5587 41.3788 11.5728 41.5346C11.6036 41.9407 11.6036 42.3485 11.5728 42.7546C11.5728 42.9986 11.6704 43.1352 11.9535 43.1645C12.2288 43.1744 12.5018 43.1104 12.744 42.9791C13.0142 42.8496 13.2364 42.6377 13.3784 42.374C13.3813 42.3448 13.3813 42.3153 13.3784 42.2861C13.3837 42.2604 13.3837 42.2338 13.3784 42.2081C13.3986 41.9581 13.3217 41.7099 13.1637 41.5151C13.021 41.2821 12.8233 41.0877 12.5879 40.949Z" fill="#00142D"></path><path d="M20.9135 38.3343C21.5883 38.2058 22.2691 38.1113 22.9534 38.0512C23.2478 38.0077 23.5471 38.0077 23.8415 38.0512C24.2612 38.1781 24.5735 38.7539 24.8175 39.7787C24.8711 40.0264 24.907 40.2775 24.9249 40.5303C24.9424 40.6747 24.9229 40.8212 24.8683 40.9561C24.8137 41.091 24.7257 41.2097 24.6126 41.3013C24.2229 41.5848 23.7821 41.7903 23.3145 41.9064C22.8081 42.0165 22.3399 42.259 21.9578 42.6092C21.8199 42.7306 21.7107 42.8811 21.6381 43.0499C21.5656 43.2187 21.5314 43.4015 21.5382 43.5852C21.5563 43.7331 21.6102 43.8744 21.6952 43.9969C21.7803 44.1193 21.8939 44.2192 22.0262 44.2879C22.4085 44.4985 22.839 44.6061 23.2755 44.6002C23.7012 44.5655 24.128 44.6536 24.5052 44.854C24.623 44.977 24.7148 45.1225 24.7752 45.2818C24.8356 45.4411 24.8633 45.6109 24.8566 45.7812C24.9163 46.1084 24.886 46.4458 24.7687 46.7572C24.533 46.9981 24.2361 47.1701 23.9098 47.2549C22.9338 47.5868 22.4751 48.0943 22.4361 48.7872C22.4403 48.8392 22.4403 48.8914 22.4361 48.9434C22.4321 48.9921 22.4321 49.0411 22.4361 49.0898C22.441 49.2422 22.4815 49.3913 22.5543 49.5252C22.6272 49.6591 22.7305 49.774 22.8558 49.8608C23.2157 50.0373 23.6212 50.0986 24.0172 50.0365C24.3684 50.0147 24.7204 50.0645 25.0518 50.1829C25.1588 50.2547 25.2462 50.3521 25.3059 50.4664C25.3655 50.5806 25.3956 50.708 25.3934 50.8369C25.4242 51.0831 25.4242 51.3323 25.3934 51.5786C25.401 51.9675 25.2734 52.347 25.0323 52.6522C24.6209 52.8909 24.1599 53.0312 23.6854 53.0621C22.2702 53.3159 21.2161 53.472 20.5036 53.5404C20.1017 53.6108 19.6884 53.5772 19.3031 53.4428L18.7956 53.2378L18.1612 46.4058L17.8977 43.3607C17.7513 41.6527 17.683 40.5888 17.7025 40.1496C17.6691 39.847 17.753 39.5432 17.9367 39.3005C18.8536 38.7808 19.8662 38.4521 20.9135 38.3343Z" fill="#00142D"></path><path d="M28.1752 38.7441C28.561 38.6468 28.9585 38.6041 29.3562 38.6172H29.5514C29.8796 38.5844 30.208 38.6787 30.4688 38.8808C31.3522 40.0247 32.0656 41.2903 32.5867 42.6384C33.4651 44.5904 34.0898 45.5664 34.4802 45.5664C34.8706 45.5664 34.9291 44.8149 34.9194 43.3216C34.9273 42.7354 34.875 42.15 34.7632 41.5745C34.6717 41.2037 34.6193 40.8242 34.6071 40.4424C34.588 40.2272 34.6547 40.0133 34.7925 39.847C35.1717 39.4275 35.6681 39.1317 36.2175 38.9979C36.8075 38.7586 37.4355 38.6264 38.0719 38.6075C38.2988 38.5823 38.5279 38.6302 38.7258 38.7441C38.9991 38.9588 39.1943 39.6128 39.2821 40.6961C39.37 41.7795 39.4383 43.7998 39.448 46.7473C39.448 50.7945 39.37 52.9384 39.2138 53.1792C38.9294 53.5086 38.5397 53.7293 38.1109 53.8039C37.7939 53.9052 37.4665 53.9707 37.1349 53.999C36.9542 53.994 36.7744 53.9711 36.5981 53.9307C36.2539 53.8541 35.9449 53.6653 35.7197 53.3939C35.3272 52.8343 34.9998 52.2318 34.7437 51.5981C34.08 50.1536 33.5627 49.4314 33.2016 49.4411C33.0455 49.4997 32.9674 50.2902 32.9771 51.803C33.0081 52.4545 32.9852 53.1074 32.9088 53.755C32.8907 53.8614 32.8476 53.962 32.7832 54.0485C32.7187 54.135 32.6347 54.205 32.5379 54.2528C32.1725 54.4006 31.7802 54.4704 31.3863 54.4578C31.018 54.4785 30.6501 54.4116 30.3127 54.2626C30.1017 54.1387 29.945 53.9402 29.8735 53.7062C29.7294 53.1868 29.6185 52.6587 29.5416 52.1251C29.0927 49.363 28.5656 46.9718 28.0581 44.932C27.6048 43.3684 27.3394 41.7564 27.2675 40.13V39.9739C27.2439 39.8301 27.2511 39.6829 27.2888 39.5422C27.3265 39.4015 27.3938 39.2704 27.4861 39.1577C27.5785 39.045 27.6938 38.9533 27.8244 38.8888C27.955 38.8242 28.0979 38.7882 28.2435 38.7832L28.1752 38.7441Z" fill="#00142D"></path><path d="M45.1944 38.7246C45.6 38.6518 46.013 38.6288 46.4242 38.6562C47.3392 38.6199 48.253 38.7557 49.118 39.0564C49.4353 39.203 49.7612 39.3301 50.094 39.4371C50.7913 39.6654 51.3701 40.16 51.7044 40.8132C52.1303 41.4464 52.3673 42.1878 52.3876 42.9506C52.3933 43.2383 52.2964 43.5185 52.1143 43.7412C51.9204 43.9471 51.6804 44.1041 51.414 44.1991C51.1476 44.2941 50.8624 44.3245 50.582 44.2878C50.2544 44.2758 49.9282 44.2399 49.606 44.1804L48.63 44.034L48.5226 43.1654C48.3372 41.838 47.7028 41.1548 46.5706 41.1255C45.2042 41.1255 44.4331 42.4269 44.2575 45.0295V45.5859C44.2228 46.598 44.2849 47.6111 44.4429 48.6115C44.4893 49.2518 44.6903 49.8714 45.0285 50.4171C45.1809 50.5595 45.3608 50.6694 45.5572 50.7399C45.7535 50.8103 45.9622 50.84 46.1704 50.827C46.2929 50.8507 46.4188 50.8507 46.5413 50.827C47.1464 50.6025 47.5173 49.9681 47.5173 48.875C47.5421 48.6068 47.5223 48.3364 47.4588 48.0746C47.4099 47.9673 47.244 47.8697 46.9707 47.7916C46.8268 47.7652 46.6907 47.7067 46.5725 47.6205C46.4542 47.5344 46.3568 47.4227 46.2875 47.2939C46.243 47.145 46.22 46.9905 46.2192 46.8351C46.2192 46.0348 46.4144 45.5761 46.7463 45.4492C47.5614 45.3401 48.3858 45.3173 49.2058 45.3809C49.7836 45.3824 50.3606 45.4215 50.9333 45.498C51.1354 45.5268 51.3258 45.6102 51.484 45.7392C51.6422 45.8682 51.7623 46.0379 51.8312 46.23C52.0086 46.9841 52.0646 47.7616 51.9972 48.5334C52.0131 49.5164 51.9214 50.4983 51.7239 51.4614C51.4886 52.1122 51.1308 52.7118 50.6698 53.2279C50.2871 53.7594 49.7945 54.2021 49.2253 54.526C48.5591 54.73 47.861 54.8094 47.1659 54.7603C46.633 54.7474 46.1015 54.6985 45.5751 54.6139C44.9488 54.5005 44.3574 54.2433 43.8475 53.8624C43.3062 53.5033 42.8499 53.0303 42.5104 52.4764C41.593 50.8758 41.1733 48.4976 41.2514 45.3419C41.3229 42.7912 41.7231 41.1125 42.4519 40.3057C42.8216 39.9165 43.2496 39.5872 43.7207 39.3297C44.18 39.0577 44.6765 38.8539 45.1944 38.7246Z" fill="#00142D"></path><path d="M64.5212 38.8516C65.1547 38.6609 65.8116 38.5591 66.4732 38.549C66.736 38.5172 67.0022 38.5684 67.2345 38.6954C67.4882 38.8711 67.6151 39.4079 67.6249 40.296C67.6249 40.8133 67.6249 41.5941 67.5175 42.6287C67.2637 46.9231 66.5025 49.786 65.2337 51.2175C64.6032 52.012 63.7732 52.6248 62.8284 52.9935C61.8835 53.3622 60.8578 53.4735 59.8559 53.3159C59.3043 53.2629 58.7625 53.1348 58.2455 52.9353C56.8205 52.2846 55.7176 50.3521 54.9368 47.1378C54.4281 45.3296 54.1237 43.4701 54.0291 41.5941V41.0963C54.0177 40.7245 54.0605 40.353 54.156 39.9935C54.2465 39.8093 54.4034 39.6662 54.5952 39.5933C55.1444 39.3899 55.7276 39.2939 56.313 39.3103H56.7132H57.0352C57.6208 39.3103 58.0112 39.4859 58.0698 39.8471C58.2337 40.9325 58.3153 42.0287 58.3138 43.1264C58.3138 43.5852 58.3138 43.9463 58.3138 44.2098C58.3724 47.089 58.5383 48.7189 58.792 49.0898C58.876 49.2391 58.9977 49.3638 59.145 49.4511C59.2924 49.5385 59.4601 49.5856 59.6314 49.5876C60.0529 49.542 60.4491 49.3643 60.7636 49.08C61.1527 48.7941 61.4592 48.4102 61.6517 47.9674C61.9278 47.3912 62.1122 46.7754 62.1983 46.1423C62.2861 45.5176 62.3642 44.4148 62.4325 42.8434C62.4325 42.17 62.4325 41.6819 62.4325 41.3696C62.4418 41.0408 62.4843 40.7138 62.5594 40.3936C62.6032 40.1677 62.6652 39.9458 62.7448 39.7299C62.8385 39.5774 62.9612 39.4448 63.106 39.3396C63.2584 39.2126 63.4341 39.1165 63.6233 39.0565L64.5212 38.8516Z" fill="#00142D"></path><path d="M70.5144 39.1731C70.8169 39.1731 71.1683 39.1243 71.5489 39.1243H71.9686C72.2513 39.1226 72.5332 39.1554 72.808 39.2219C73.0046 39.3294 73.1746 39.4795 73.3057 39.6611C73.518 40.0021 73.639 40.392 73.6571 40.7933C73.6571 41.3203 73.784 42.5794 73.8621 44.5607C73.9031 46.4933 74.0792 48.4207 74.3891 50.3288C74.6819 51.6952 74.8381 52.4565 74.8576 52.6224C74.8745 52.827 74.8745 53.0327 74.8576 53.2373C74.858 53.3652 74.8226 53.4906 74.7553 53.5993C74.688 53.708 74.5916 53.7956 74.4769 53.8522C73.8844 54.1909 73.2063 54.3503 72.5249 54.3109C71.9985 54.3459 71.4725 54.238 71.0024 53.9986C70.7828 53.8491 70.5995 53.6522 70.4661 53.4225C70.3326 53.1928 70.2524 52.9361 70.2313 52.6713C70.0087 51.0693 69.8718 49.4566 69.8214 47.84C69.5969 44.1117 69.4115 41.6912 69.2456 40.5688C69.2332 40.4227 69.2332 40.2758 69.2456 40.1296C69.2343 40.0075 69.2524 39.8845 69.2982 39.7708C69.344 39.657 69.4163 39.5559 69.5091 39.4757C69.8083 39.2806 70.1572 39.1756 70.5144 39.1731Z" fill="#00142D"></path><path d="M77.2096 38.7536C77.5954 38.6563 77.9929 38.6136 78.3906 38.6268H78.5858C78.9141 38.5939 79.2424 38.6882 79.5032 38.8903C80.3883 40.0367 81.1017 41.3057 81.6212 42.6576C82.4996 44.6097 83.1242 45.5857 83.5146 45.5857C83.905 45.5857 83.9636 44.8341 83.9538 43.3409C83.9617 42.7547 83.9094 42.1693 83.7976 41.5938C83.7061 41.2229 83.6538 40.8435 83.6415 40.4616C83.6225 40.2465 83.6891 40.0326 83.8269 39.8663C84.1916 39.4426 84.674 39.1369 85.2128 38.9879C85.8029 38.7486 86.4308 38.6164 87.0673 38.5975C87.2942 38.5723 87.5233 38.6202 87.7212 38.7341C87.9945 38.9489 88.1897 39.6028 88.2775 40.6861C88.3653 41.7695 88.4337 43.7898 88.4434 46.7373C88.4434 50.7975 88.3849 52.9349 88.2092 53.1692C87.9247 53.4985 87.535 53.7193 87.1063 53.7938C86.7893 53.8952 86.4619 53.9607 86.1303 53.989C85.9495 53.984 85.7697 53.9611 85.5935 53.9207C85.2493 53.8441 84.9403 53.6552 84.7151 53.3839C84.3226 52.8243 83.9952 52.2218 83.7391 51.5881C83.0656 50.1436 82.5581 49.4213 82.197 49.4311C82.0408 49.4994 81.9628 50.2802 81.9725 51.793C82.0035 52.4445 81.9806 53.0973 81.9042 53.745C81.8861 53.8514 81.843 53.9519 81.7786 54.0385C81.7141 54.125 81.6301 54.195 81.5333 54.2428C81.1693 54.3953 80.776 54.4653 80.3816 54.4477C80.0134 54.4685 79.6454 54.4016 79.308 54.2526C79.099 54.1311 78.9425 53.9363 78.8688 53.706C78.7211 53.1841 78.6103 52.6525 78.537 52.1151C78.088 49.353 77.561 46.9618 77.0535 44.922C76.6002 43.3584 76.3348 41.7464 76.2629 40.12V39.9736C76.2317 39.6908 76.3046 39.4063 76.4679 39.1733C76.6608 38.9539 76.9222 38.8061 77.2096 38.7536Z" fill="#00142D"></path><path d="M93.8026 38.7441C94.1532 38.6776 94.5095 38.6449 94.8664 38.6465C95.5862 38.6466 96.3002 38.7755 96.9746 39.0272C97.599 39.2854 98.1838 39.6303 98.7118 40.052C99.1862 40.3399 99.5871 40.7342 99.883 41.2037C99.8807 41.2296 99.8807 41.2558 99.883 41.2817C99.8898 41.304 99.8898 41.3278 99.883 41.3501C99.8544 41.6541 99.7071 41.9346 99.4731 42.1308C99.1711 42.4363 98.8042 42.6699 98.3995 42.8141C98.0967 42.9719 97.7643 43.065 97.4235 43.0873C97.0136 43.0873 96.6134 42.8141 96.2328 42.2577C96.0925 42.0142 95.8926 41.8103 95.6518 41.6652C95.4111 41.5201 95.1375 41.4385 94.8566 41.4281C94.6387 41.4235 94.4244 41.4847 94.2418 41.6038C94.1217 41.6952 94.0273 41.8159 93.9674 41.9544C93.9076 42.0928 93.8844 42.2444 93.9002 42.3944C93.931 42.9415 94.0916 43.4734 94.3686 43.9462C94.6721 44.5261 95.0751 45.048 95.5594 45.4883C96.6414 46.3591 97.5887 47.3852 98.3702 48.5334C98.6825 49.1119 98.8656 49.7513 98.907 50.4074C98.9016 51.0814 98.6637 51.733 98.2336 52.252C97.8837 52.7497 97.4181 53.1549 96.877 53.433C96.2818 53.684 95.6387 53.8006 94.9933 53.7746C94.3876 53.824 93.7782 53.7528 93.2002 53.5651C92.6223 53.3775 92.0872 53.0771 91.6261 52.6814C91.3199 52.4296 91.0666 52.1198 90.8807 51.7697C90.6947 51.4196 90.5799 51.0362 90.5427 50.6416C90.5463 50.315 90.6503 49.9975 90.8407 49.7321C91.031 49.4667 91.2984 49.2663 91.6065 49.1581C91.913 49.0171 92.2453 48.9407 92.5825 48.9336C93.4219 48.9336 93.9002 49.3923 94.0368 50.3293C94.0344 50.5599 94.088 50.7876 94.193 50.993C94.3027 51.1094 94.4529 51.1792 94.6126 51.1881H94.7298C94.9818 51.1998 95.23 51.1239 95.4325 50.9734C95.5213 50.9176 95.5941 50.8397 95.6437 50.7473C95.6933 50.6549 95.7181 50.5513 95.7155 50.4464C95.7155 49.8868 95.1006 49.0182 93.8709 47.8405C92.6126 46.7412 91.5701 45.4173 90.7965 43.9365C90.5425 43.3025 90.4637 42.6119 90.5685 41.937C90.6732 41.2622 90.9576 40.6279 91.3918 40.1008C92.0029 39.3695 92.8603 38.8869 93.8026 38.7441Z" fill="#00142D"></path><path d="M47.4104 20.4532L47.2152 8.06777C47.2587 7.18115 47.0972 6.29645 46.7435 5.4823C46.3897 4.66814 45.8531 3.94644 45.1753 3.3732C42.2473 1.06984 39.5829 2.58265 36.772 4.90554L35.6496 5.74488C35.2914 4.53243 34.4904 3.49903 33.4055 2.84991C32.3206 2.20079 31.0313 1.98344 29.7935 2.24104C28.8175 2.446 26.6508 3.99786 24.9135 5.33498L24.0351 6.02793C22.2393 6.80873 21.1657 8.70217 21.2145 11.1715L21.4194 23.4691C21.3879 26.4256 22.4757 29.2846 24.4646 31.4723C25.5113 32.5341 26.7634 33.3716 28.1443 33.9338C29.5253 34.4959 31.0063 34.7709 32.4971 34.7419C33.0192 34.7432 33.5408 34.7106 34.0587 34.6443C35.6631 34.4561 37.1957 33.8725 38.519 32.9461L39.7683 32.0677C44.0237 29.1397 47.6349 26.6216 47.4104 20.4532ZM25.1185 5.58872C26.7094 4.33944 28.7395 2.79737 29.8033 2.55337C31.0276 2.28968 32.3066 2.52299 33.359 3.202C34.4113 3.88101 35.151 4.95012 35.4153 6.17433C34.8684 6.40127 34.3711 6.7328 33.9513 7.15033C33.4274 7.72008 33.0242 8.3899 32.7659 9.11952C32.5076 9.84914 32.3996 10.6235 32.4483 11.3959L32.6923 25.3333C32.699 25.4198 32.6878 25.5067 32.6596 25.5888C32.6313 25.6708 32.5865 25.7461 32.528 25.8102C32.4694 25.8742 32.3984 25.9256 32.3192 25.961C32.24 25.9965 32.1544 26.0154 32.0676 26.0165C31.9786 26.0143 31.891 25.9936 31.8104 25.9559C31.7298 25.9181 31.6578 25.8641 31.5991 25.7971C31.5404 25.7302 31.4963 25.6518 31.4694 25.5669C31.4425 25.482 31.4335 25.3925 31.443 25.304L31.2088 11.3179C31.2357 10.4724 31.0816 9.63087 30.7567 8.84981C30.4318 8.06876 29.9437 7.36619 29.3251 6.78921C28.7774 6.32161 28.1364 5.97614 27.4446 5.77586C26.7529 5.57558 26.0265 5.5251 25.3137 5.62777L24.9233 5.69609L25.1185 5.58872ZM39.6414 31.5406C38.1441 33.0918 36.1525 34.0721 34.0099 34.3125C32.3264 34.564 30.6073 34.4178 28.9905 33.8857C27.3736 33.3535 25.9038 32.4501 24.6988 31.2478C22.7743 29.1068 21.7286 26.3184 21.7708 23.4398L21.5756 11.1519C21.5268 8.32154 23.0299 6.27192 25.3918 5.98888C25.616 5.97487 25.841 5.97487 26.0652 5.98888C27.1956 5.97532 28.2921 6.37437 29.1494 7.11128C29.7315 7.65886 30.1901 8.32427 30.4947 9.06311C30.7994 9.80194 30.943 10.5972 30.916 11.3959L31.1209 25.3333C31.1129 25.4663 31.1322 25.5995 31.1777 25.7248C31.2232 25.85 31.2938 25.9646 31.3852 26.0616C31.4767 26.1585 31.587 26.2357 31.7094 26.2884C31.8318 26.341 31.9637 26.3681 32.0969 26.3678C32.3558 26.3678 32.604 26.265 32.7871 26.082C32.9701 25.8989 33.0729 25.6507 33.0729 25.3918L32.8387 11.4057C32.7875 10.6766 32.8858 9.94475 33.1275 9.25498C33.3691 8.56521 33.7491 7.93206 34.2441 7.39433C34.6589 6.98606 35.1545 6.66919 35.6992 6.46411C36.2438 6.25903 36.8253 6.17028 37.4064 6.20361C40.2075 6.25241 42.1205 8.42889 42.179 11.6009L42.384 23.8985C42.4547 25.2904 42.2488 26.6825 41.778 27.9942C41.3073 29.306 40.5811 30.5114 39.6414 31.5406ZM40.2661 31.3357C41.9473 29.2181 42.7976 26.5596 42.6573 23.8595L42.4425 11.5716C42.384 8.20441 40.3441 5.91081 37.3576 5.84249C36.8026 5.83083 36.2493 5.90659 35.7179 6.06698C36.04 5.85226 36.4694 5.52042 36.9574 5.14954C39.6317 2.96329 42.2083 1.41143 44.9509 3.60744C45.593 4.14789 46.1029 4.82827 46.4412 5.59637C46.7796 6.36447 46.9375 7.19988 46.9029 8.03849C46.9029 8.50698 46.9614 11.1715 46.9614 11.7961C47.02 14.9681 47.0981 19.6041 47.1078 20.4532C47.1078 20.4532 47.1078 20.5118 47.1078 20.5313C47.264 26.1628 44.2286 28.5638 40.2661 31.3357Z" fill="black"></path><path d="M33.9538 7.1412C33.4299 7.71095 33.0267 8.3808 32.7684 9.11042C32.5101 9.84004 32.402 10.6144 32.4508 11.3868L32.6948 25.3339C32.7014 25.4204 32.6903 25.5074 32.662 25.5894C32.6338 25.6714 32.589 25.7468 32.5304 25.8108C32.4719 25.8749 32.4008 25.9262 32.3217 25.9617C32.2425 25.9972 32.1569 26.016 32.0701 26.0171C31.9811 26.0149 31.8935 25.9943 31.8129 25.9565C31.7322 25.9188 31.6603 25.8647 31.6016 25.7978C31.5429 25.7308 31.4987 25.6524 31.4719 25.5676C31.445 25.4827 31.436 25.3932 31.4455 25.3046L31.2112 11.3185C31.2382 10.473 31.0841 9.63152 30.7592 8.85046C30.4343 8.0694 29.9462 7.36683 29.3276 6.78986C28.7799 6.32225 28.1388 5.97678 27.4471 5.7765C26.7554 5.57623 26.029 5.52574 25.3162 5.62841L24.9258 5.69674L25.121 5.55034C26.7119 4.30106 28.742 2.75896 29.8058 2.51496C31.0301 2.25128 32.3091 2.48459 33.3615 3.16359C34.4138 3.8426 35.1535 4.91172 35.4178 6.13592C34.8685 6.37156 34.371 6.71316 33.9538 7.1412Z" fill="#477DFD"></path><path d="M40.2669 31.3363C41.9482 29.2188 42.7984 26.5603 42.6581 23.8601L42.4434 11.5723C42.3848 8.20506 40.345 5.91146 37.3584 5.84314C36.8035 5.83148 36.2501 5.90724 35.7188 6.06763C36.0408 5.85291 36.4703 5.52107 36.9583 5.15019C39.6325 2.96394 42.2092 1.41208 44.9517 3.60809C45.5939 4.14854 46.1037 4.82892 46.4421 5.59702C46.7805 6.36512 46.9384 7.20053 46.9037 8.03915C46.9037 8.50763 46.9623 11.1721 46.9623 11.7968C47.0209 14.9688 47.0989 19.6048 47.1087 20.4539C47.1087 20.4539 47.1087 20.5124 47.1087 20.532C47.2649 26.1635 44.2295 28.5645 40.2669 31.3363Z" fill="#477DFD"></path><path d="M42.3271 23.8695C42.4097 25.2622 42.215 26.6574 41.7542 27.9743C41.2935 29.2911 40.5759 30.5034 39.6431 31.5409C38.1458 33.0921 36.1542 34.0724 34.0116 34.3128C32.3281 34.5643 30.6091 34.4181 28.9922 33.8859C27.3753 33.3538 25.9055 32.4504 24.7005 31.2481C22.776 29.1071 21.7303 26.3186 21.7725 23.4401L21.5773 11.1522C21.5285 8.32181 23.0316 6.27219 25.3935 5.98915C25.6178 5.97513 25.8427 5.97513 26.0669 5.98915C27.1973 5.97559 28.2938 6.37464 29.1511 7.11155C29.7332 7.65913 30.1918 8.32454 30.4965 9.06337C30.8011 9.80221 30.9447 10.5975 30.9177 11.3962L31.1226 25.3335C31.1146 25.4665 31.134 25.5998 31.1794 25.725C31.2249 25.8503 31.2955 25.9649 31.3869 26.0618C31.4784 26.1588 31.5887 26.2359 31.7111 26.2886C31.8335 26.3413 31.9654 26.3683 32.0986 26.3681C32.3575 26.3681 32.6057 26.2653 32.7888 26.0822C32.9718 25.8992 33.0746 25.6509 33.0746 25.3921L32.8404 11.406C32.7892 10.6769 32.8875 9.94502 33.1292 9.25525C33.3708 8.56548 33.7508 7.93233 34.2458 7.3946C34.6606 6.98633 35.1562 6.66946 35.7009 6.46437C36.2455 6.25929 36.8271 6.17055 37.4081 6.20387C40.2092 6.25267 42.1222 8.42916 42.1807 11.6012L42.3271 23.8695Z" fill="#F5FDFF"></path><path d="M31.2695 25.236C31.2743 25.2749 31.2743 25.3142 31.2695 25.3531V25.4019C31.2695 25.4019 31.2695 25.4019 31.2695 25.4604C31.2741 25.4896 31.2741 25.5192 31.2695 25.5483V25.6264C31.2695 25.6264 31.2695 25.6264 31.2695 25.6752L31.3183 25.7435C31.3386 25.7687 31.3615 25.7915 31.3867 25.8118H31.455H31.5233H31.5916H32.3139H32.3919H32.4798L32.5871 25.7532L32.7433 25.6459V23.9574L31.3183 24.992L31.2695 25.236Z" fill="black"></path><path d="M41.8406 17.808L36.2969 33.7461C37.5669 33.2815 38.7126 32.53 39.6446 31.5501C40.5767 30.5103 41.2938 29.2962 41.7545 27.9778C42.2152 26.6595 42.4103 25.263 42.3286 23.8689L42.2114 16.7441L41.8698 17.7201L41.8406 17.808Z" fill="#DBE3E5"></path><g><path d="M67.956 16.7357C67.8584 20.6397 66.7848 25.4124 64.5693 28.7015C64.3741 28.9943 64.1593 29.2773 63.9446 29.5506C63.2945 30.3657 62.5205 31.0737 61.651 31.649C59.6131 32.9133 57.1686 33.3498 54.819 32.869L50.2611 32.0687L45.7227 30.1167L49.3241 30.7413C49.695 30.7999 50.0561 30.8487 50.3879 30.878C50.7198 30.9073 51.0321 30.9268 51.3639 30.9268C52.5785 30.9423 53.7832 30.7076 54.9032 30.2375C56.0231 29.7673 57.0343 29.0717 57.8739 28.194C59.904 26.1444 61.3875 22.8845 62.1781 18.7755C62.9686 14.6666 62.7734 11.1335 61.6413 8.52753C61.0591 7.13674 60.1156 5.92699 58.9084 5.02368L62.4416 6.37057C63.8999 6.9578 65.1597 7.95009 66.0723 9.23025C67.4794 11.4694 68.139 14.0975 67.956 16.7357Z" fill="#477DFD"></path><path d="M68.2799 15.9149C68.2655 15.288 68.2166 14.6624 68.1335 14.0409C67.9367 12.257 67.3068 10.5481 66.2986 9.0633C65.3442 7.75144 64.0381 6.73636 62.5312 6.1353L56.6752 3.90027C54.2994 3.26022 51.8832 2.78089 49.443 2.46555C46.8566 2.25083 44.9046 3.8905 44.3581 6.75995L41.0006 24.2792C40.6913 25.564 40.8944 26.9187 41.5667 28.0563C42.1834 29.0027 43.1474 29.6687 44.2507 29.9107L50.1653 32.4093L54.7622 33.1413C57.1722 33.6415 59.6822 33.2127 61.7895 31.9408C62.7357 31.3327 63.5736 30.5707 64.2685 29.6862C64.7593 29.0698 65.203 28.4173 65.5959 27.7342C67.4268 24.1037 68.3637 20.0882 68.3287 16.0222L68.2799 15.9149ZM41.8009 27.8416C41.1759 26.7725 40.9871 25.5035 41.2739 24.2987L44.6313 6.78923C45.1193 4.25162 46.7493 2.72906 48.9453 2.72906H49.3747C49.3747 2.72906 54.3035 3.57819 54.4987 3.59771C55.9817 3.76869 57.3937 4.32672 58.5928 5.21583C59.792 6.10493 60.7362 7.29382 61.3307 8.66317C62.4434 11.2105 62.6191 14.6851 61.848 18.7258C61.077 22.7664 59.613 25.9677 57.6317 27.9782C56.7086 28.934 55.5778 29.6644 54.3271 30.1129C53.0763 30.5614 51.7391 30.716 50.419 30.5646C50.0872 30.5646 49.7456 30.4963 49.3747 30.428L44.6997 29.6179C44.1177 29.5458 43.5579 29.35 43.058 29.0436C42.558 28.7372 42.1294 28.3274 41.8009 27.8416ZM67.9578 16.7347C67.8602 20.6387 66.7866 25.4114 64.5711 28.7005C64.3759 28.9933 64.1611 29.2763 63.9464 29.5496C63.2963 30.3647 62.5223 31.0727 61.6528 31.648C59.6149 32.9123 57.1704 33.3488 54.8208 32.868L50.2629 32.0677L45.7245 30.1157L49.3259 30.7403C49.6968 30.7989 50.0579 30.8477 50.3898 30.877C50.7216 30.9062 51.0339 30.9258 51.3658 30.9258C52.5803 30.9413 53.785 30.7066 54.905 30.2365C56.0249 29.7663 57.0361 29.0707 57.8757 28.193C59.9058 26.1434 61.3893 22.8835 62.1799 18.7745C62.9704 14.6656 62.7752 11.1324 61.6431 8.52651C61.0609 7.13573 60.1174 5.92598 58.9103 5.02267L62.4434 6.36956C63.9017 6.95679 65.1615 7.94907 66.0741 9.22924C67.4812 11.4684 68.1408 14.0965 67.9578 16.7347Z" fill="black"></path><path d="M61.3009 8.6831C60.7065 7.31376 59.7622 6.12486 58.5631 5.23576C57.3639 4.34666 55.9519 3.78862 54.4689 3.61765C54.2737 3.61765 49.384 2.71971 49.3449 2.74899H48.9155C46.7195 2.74899 45.0896 4.27156 44.6015 6.80917L41.2441 24.3186C40.9573 25.5234 41.1461 26.7924 41.7711 27.8615C42.0944 28.3475 42.5176 28.759 43.0123 29.0687C43.5071 29.3783 44.0622 29.579 44.6406 29.6574L49.3156 30.4675C49.6865 30.5358 50.0281 30.5748 50.36 30.6041C51.6801 30.7554 53.0173 30.6008 54.268 30.1523C55.5188 29.7038 56.6495 28.9734 57.5726 28.0177C59.5246 26.0071 61.0179 22.8058 61.7889 18.7652C62.56 14.7245 62.4136 11.2305 61.3009 8.6831ZM54.2445 11.1329L51.902 23.3231C51.88 23.6357 51.7414 23.9285 51.5136 24.1437C51.2859 24.3588 50.9856 24.4805 50.6723 24.4846H50.5454H50.4088C50.082 24.4358 49.7876 24.2605 49.5889 23.9966C49.3954 23.6706 49.3359 23.2822 49.423 22.9132L51.7654 10.7132C51.8136 10.3717 51.9792 10.0576 52.2339 9.82501C52.3562 9.72299 52.4981 9.64702 52.6508 9.60171C52.8035 9.5564 52.9639 9.54272 53.1221 9.5615H53.2587C53.4191 9.58202 53.5737 9.63502 53.713 9.71725C53.8522 9.79947 53.9733 9.90918 54.0688 10.0397C54.169 10.2012 54.2361 10.381 54.2663 10.5687C54.2965 10.7563 54.289 10.9481 54.2445 11.1329Z" fill="#F5FDFF"></path><path d="M54.0677 10.0402C53.9722 9.90968 53.8512 9.79997 53.7119 9.71775C53.5726 9.63553 53.4181 9.58252 53.2576 9.562H53.121C52.9628 9.54322 52.8025 9.5569 52.6497 9.60221C52.497 9.64752 52.3552 9.7235 52.2328 9.82551C51.9782 10.0581 51.8125 10.3722 51.7643 10.7137L49.4219 22.9137C49.3349 23.2827 49.3944 23.6711 49.5879 23.9971C49.7865 24.261 50.081 24.4363 50.4077 24.4851H50.5443H50.6712C50.9845 24.481 51.2848 24.3593 51.5126 24.1442C51.7403 23.929 51.879 23.6362 51.901 23.3236L54.2434 11.1334C54.288 10.9486 54.2954 10.7568 54.2652 10.5692C54.2351 10.3815 54.1679 10.2017 54.0677 10.0402ZM53.9213 11.0748L51.5789 23.2651C51.4618 23.8897 51.1007 24.2411 50.6029 24.1533H50.4663C50.3469 24.1387 50.2317 24.1001 50.1276 24.0397C50.0236 23.9793 49.933 23.8984 49.8611 23.8019C49.7857 23.6772 49.7364 23.5385 49.7162 23.3942C49.6961 23.2499 49.7056 23.1031 49.744 22.9625L52.0767 10.7625C52.1217 10.4966 52.2478 10.2512 52.4378 10.0598C52.5944 9.9311 52.7914 9.86195 52.9941 9.86456H53.1991C53.3185 9.8791 53.4337 9.91774 53.5377 9.97813C53.6417 10.0385 53.7324 10.1194 53.8042 10.2159C53.8792 10.3444 53.9281 10.4863 53.9482 10.6337C53.9683 10.7811 53.9592 10.931 53.9213 11.0748Z" fill="black"></path><path d="M54.0777 11.1032L51.745 23.2934C51.7154 23.5803 51.5737 23.8438 51.3506 24.0266C51.1276 24.2094 50.8414 24.2967 50.5543 24.2694H50.4372C50.2829 24.2503 50.1349 24.1969 50.0039 24.1133C49.8729 24.0297 49.7622 23.9179 49.6799 23.786C49.5976 23.6541 49.5457 23.5055 49.5282 23.3511C49.5106 23.1967 49.5277 23.0403 49.5783 22.8933L51.9207 10.6932C51.9687 10.3875 52.1162 10.1062 52.3404 9.89292C52.4477 9.80647 52.5711 9.74213 52.7035 9.7036C52.8358 9.66508 52.9745 9.65314 53.1114 9.66846H53.2286C53.3891 9.68653 53.5433 9.74161 53.679 9.82939C53.8147 9.91717 53.9282 10.0353 54.0105 10.1743C54.0928 10.3134 54.1417 10.4697 54.1533 10.6308C54.165 10.792 54.1391 10.9537 54.0777 11.1032Z" fill="black"></path></g><path d="M99.7559 37.8267H100.39V39.6226H100.693V37.8267H101.327V37.5535H99.7559V37.8267Z" fill="#00142D"></path><path d="M103.766 37.5536H103.522H103.454L102.771 39.1835L102.088 37.5536H102.019H101.775H101.717V39.6227H102.019V38.1197L102.673 39.6227H102.868L103.522 38.1197V39.6227H103.825V37.5536H103.766Z" fill="#00142D"></path></svg>