<svg viewBox="0 0 32 32" fill="none" xmlns="http://www.w3.org/2000/svg" width="30"><path d="M6.74 4.32715C6.65218 4.22816 6.54559 4.14758 6.4264 4.09009C6.30721 4.0326 6.1778 3.99933 6.04566 3.99222C5.91352 3.98511 5.78128 4.0043 5.65661 4.04868C5.53194 4.09305 5.41732 4.16173 5.31939 4.25073C5.22146 4.33973 5.14216 4.44728 5.0861 4.56715C5.03004 4.68702 4.99833 4.81682 4.99281 4.94904C4.98728 5.08125 5.00806 5.21325 5.05392 5.33738C5.09979 5.4615 5.16983 5.57529 5.26 5.67215L9.19375 9.99965H4C3.46957 9.99965 2.96086 10.2104 2.58579 10.5854C2.21071 10.9605 2 11.4692 2 11.9997V19.9997C2 20.5301 2.21071 21.0388 2.58579 21.4139C2.96086 21.7889 3.46957 21.9997 4 21.9997H9.65625L18.3862 28.7884C18.534 28.9032 18.711 28.9743 18.8971 28.9936C19.0832 29.0128 19.271 28.9795 19.4391 28.8973C19.6072 28.8152 19.7489 28.6875 19.8481 28.5288C19.9472 28.3701 19.9999 28.1868 20 27.9997V21.8859L25.26 27.6722C25.3478 27.7711 25.4544 27.8517 25.5736 27.9092C25.6928 27.9667 25.8222 28 25.9543 28.0071C26.0865 28.0142 26.2187 27.995 26.3434 27.9506C26.4681 27.9063 26.5827 27.8376 26.6806 27.7486C26.7785 27.6596 26.8578 27.552 26.9139 27.4322C26.97 27.3123 27.0017 27.1825 27.0072 27.0503C27.0127 26.9181 26.9919 26.7861 26.9461 26.6619C26.9002 26.5378 26.8302 26.424 26.74 26.3272L6.74 4.32715ZM4 11.9997H9V19.9997H4V11.9997ZM18 25.9547L11 20.5109V11.9859L18 19.6859V25.9547ZM23.25 17.9834C23.7323 17.4356 23.9984 16.7308 23.9984 16.0009C23.9984 15.271 23.7323 14.5662 23.25 14.0184C23.1581 13.9207 23.0868 13.8056 23.0403 13.6798C22.9939 13.5541 22.9731 13.4202 22.9794 13.2863C22.9857 13.1524 23.0189 13.0211 23.0769 12.9002C23.135 12.7794 23.2167 12.6714 23.3174 12.5828C23.418 12.4942 23.5354 12.4267 23.6626 12.3843C23.7898 12.342 23.9243 12.3257 24.0579 12.3364C24.1916 12.347 24.3217 12.3845 24.4406 12.4464C24.5595 12.5084 24.6647 12.5937 24.75 12.6972C25.5543 13.6102 25.9981 14.7853 25.9981 16.0022C25.9981 17.219 25.5543 18.3941 24.75 19.3072C24.6631 19.4056 24.5576 19.4861 24.4396 19.5438C24.3216 19.6015 24.1934 19.6354 24.0623 19.6436C23.9312 19.6518 23.7998 19.6341 23.6755 19.5915C23.5513 19.5489 23.4366 19.4822 23.3381 19.3953C23.2396 19.3084 23.1592 19.2029 23.1015 19.0849C23.0438 18.9669 23.0098 18.8387 23.0017 18.7076C22.9935 18.5765 23.0112 18.4451 23.0538 18.3208C23.0964 18.1965 23.1631 18.0819 23.25 17.9834ZM13.23 8.4834C13.1493 8.37976 13.0898 8.26122 13.0549 8.13457C13.02 8.00792 13.0104 7.87563 13.0267 7.74527C13.0429 7.61491 13.0847 7.48903 13.1496 7.37482C13.2145 7.26061 13.3013 7.16031 13.405 7.07965L18.3862 3.20465C18.5344 3.08948 18.712 3.01831 18.8987 2.99929C19.0853 2.98027 19.2736 3.01416 19.4419 3.09709C19.6103 3.18002 19.7519 3.30864 19.8506 3.46824C19.9492 3.62785 20.001 3.812 20 3.99965V13.3534C20 13.6186 19.8946 13.873 19.7071 14.0605C19.5196 14.248 19.2652 14.3534 19 14.3534C18.7348 14.3534 18.4804 14.248 18.2929 14.0605C18.1054 13.873 18 13.6186 18 13.3534V6.04465L14.6325 8.66965C14.4225 8.83159 14.1567 8.90347 13.8937 8.86948C13.6307 8.83549 13.392 8.69841 13.23 8.4884V8.4834ZM31 15.9997C31.0014 18.4599 30.0947 20.8341 28.4538 22.6672C28.2756 22.8599 28.0288 22.9749 27.7667 22.9873C27.5045 22.9997 27.248 22.9086 27.0524 22.7335C26.8568 22.5585 26.7379 22.3136 26.7214 22.0516C26.7048 21.7897 26.7918 21.5317 26.9638 21.3334C28.2755 19.8667 29.0007 17.968 29.0007 16.0003C29.0007 14.0326 28.2755 12.1339 26.9638 10.6672C26.8737 10.5697 26.804 10.4554 26.7586 10.3307C26.7131 10.2061 26.693 10.0736 26.6993 9.94112C26.7055 9.80861 26.7381 9.67867 26.7951 9.55887C26.8521 9.43908 26.9323 9.33182 27.0312 9.24334C27.13 9.15486 27.2455 9.08693 27.3708 9.04351C27.4962 9.00009 27.6289 8.98205 27.7613 8.99043C27.8937 8.99881 28.0231 9.03345 28.142 9.09234C28.2609 9.15122 28.3669 9.23316 28.4538 9.3334C30.0952 11.1657 31.002 13.5397 31 15.9997Z" fill="currentColor"></path></svg>