<svg viewBox="0 0 48 48" fill="none" xmlns="http://www.w3.org/2000/svg" width="100%"><path d="M24 45C35.598 45 45 35.598 45 24C45 12.402 35.598 3 24 3C12.402 3 3 12.402 3 24C3 35.598 12.402 45 24 45Z" fill="#C2DEFF"></path><path d="M45.0519 24.0005C45.0519 27.8265 43.9829 31.4155 42.1949 34.5045C40.3509 37.6915 37.8899 40.6935 34.7029 42.5374C31.6139 44.3244 27.8259 45.4085 24.0009 45.4085C20.1749 45.4085 16.4339 44.2435 13.3449 42.4565C10.1579 40.6125 7.4979 37.7795 5.6549 34.5925C3.86791 31.5035 3.37891 27.8265 3.37891 24.0005C3.37891 20.1745 4.05891 16.6075 5.8459 13.5185C7.6899 10.3315 10.2119 7.48047 13.3989 5.63648C16.4879 3.84948 20.1749 3.18848 24.0009 3.18848C27.8269 3.18848 31.3719 4.09448 34.4609 5.88247C37.6479 7.72647 40.0059 10.5095 41.8499 13.6965C43.6369 16.7855 45.0519 20.1745 45.0519 24.0005Z" stroke="#010101" stroke-width="0.999999" stroke-miterlimit="10"></path><path d="M17.6891 26.8139C18.1811 28.7199 18.7781 30.5989 19.4741 32.4399C19.6251 32.8389 19.8401 33.2899 20.2561 33.3859C20.6231 33.4699 20.9811 33.2339 21.2761 32.9999C22.1221 32.3279 22.8921 31.5609 23.5681 30.7179C24.6911 31.6539 25.8721 32.5259 26.9951 33.4619C27.4321 33.8259 27.8791 34.1959 28.4091 34.4019C28.9391 34.6069 29.5771 34.6219 30.0441 34.2979C30.3651 34.0759 30.5691 33.7239 30.7361 33.3709C31.1001 32.6059 31.3691 31.7989 31.5691 30.9759C32.3691 27.6699 32.4201 24.7199 33.8931 21.0399C34.3661 19.8579 34.4651 18.5489 34.5461 17.2799C34.5941 16.5319 34.0051 15.9019 33.2571 15.8719C32.3671 15.8359 31.4961 16.0649 30.6381 16.3229C24.5111 18.1649 19.0561 20.5689 13.6231 22.9909C13.1181 23.2159 12.5791 23.4039 12.1871 23.7939C11.9661 24.0139 11.7901 24.3119 11.8221 24.6219C11.8801 25.1899 12.5381 25.4589 13.0901 25.6019C14.6271 25.9999 16.1331 26.5169 17.6891 26.8139Z" fill="#EDF4FF"></path><path d="M20.8431 28.3086L20.5391 33.2126L23.5691 30.7166L20.8431 28.3086Z" fill="#BCBCBC"></path><path d="M20.7207 28.0098C21.8297 29.1268 22.9827 30.2008 24.1757 31.2288" stroke="#010101" stroke-width="0.999999" stroke-miterlimit="10" stroke-linejoin="round"></path><path d="M18.2638 26.3881L29.6398 18.9551L30.1458 19.4101L21.1968 27.6521L20.7918 28.9161L20.1348 33.1631L17.7578 27.1971L18.2638 26.3881Z" fill="#BCBCBC"></path><path d="M17.6891 26.8139C18.1811 28.7199 18.7781 30.5989 19.4741 32.4399C19.6251 32.8389 19.8401 33.2899 20.2561 33.3859C20.6231 33.4699 20.9811 33.2339 21.2761 32.9999C22.1221 32.3279 22.8921 31.5609 23.5681 30.7179C24.6911 31.6539 25.8721 32.5259 26.9951 33.4619C27.4321 33.8259 27.8791 34.1959 28.4091 34.4019C28.9391 34.6069 29.5771 34.6219 30.0441 34.2979C30.3651 34.0759 30.5691 33.7239 30.7361 33.3709C31.1001 32.6059 31.3691 31.7989 31.5691 30.9759C32.3691 27.6699 32.4201 24.7199 33.8931 21.0399C34.3661 19.8579 34.4651 18.5489 34.5461 17.2799C34.5941 16.5319 34.0051 15.9019 33.2571 15.8719C32.3671 15.8359 31.4961 16.0649 30.6381 16.3229C24.5111 18.1649 19.0561 20.5689 13.6231 22.9909C13.1181 23.2159 12.5791 23.4039 12.1871 23.7939C11.9661 24.0139 11.7901 24.3119 11.8221 24.6219C11.8801 25.1899 12.5381 25.4589 13.0901 25.6019C14.6271 25.9999 16.1331 26.5169 17.6891 26.8139Z" stroke="#010101" stroke-width="0.999999" stroke-miterlimit="10" stroke-linejoin="round"></path><path d="M17.6895 26.8137C21.0465 24.5917 24.1264 22.6267 27.4834 20.4047C28.1784 19.9447 30.0454 18.6517 30.3534 19.1427C30.7644 19.7967 23.9705 25.0777 20.7295 28.0217C20.5655 29.7487 20.4425 31.4807 20.3595 33.2137" stroke="#010101" stroke-width="0.999999" stroke-miterlimit="10" stroke-linejoin="round"></path></svg>