<svg viewBox="0 0 48 48" fill="none" xmlns="http://www.w3.org/2000/svg" width="100%"><mask id="svg3675643455-a" fill="white"><path fill-rule="evenodd" clip-rule="evenodd" d="M13.141 7.48868C15.689 5.72068 18.444 5.12768 21.51 4.97168C26.131 5.29168 30.828 6.14568 34.906 8.45268C38.622 10.5557 40.305 12.5407 42.325 16.6117C43.772 19.5277 44.863 25.7727 44.054 28.9257C42.536 34.8427 38.47 40.3217 33.359 43.6667C28.876 46.5997 22.401 46.5117 17.224 45.1357C13.222 44.0717 9.60698 41.7697 6.68198 38.8387C5.09698 37.2507 3.67298 35.4247 2.98798 33.2877C2.41698 31.5067 2.38698 29.5977 2.51598 27.7317C3.05698 19.8847 6.53798 12.0707 13.141 7.48868ZM24.6171 11.6747L29.1631 11.7148C29.1327 15.16 31.7888 18.0024 35.2069 18.1499L35.1662 22.7696C32.9518 22.7109 30.8603 21.9486 29.1617 20.6807L29.0785 30.1157C29.0368 34.8528 25.1949 38.695 20.4936 38.6535C15.7922 38.6121 12.0183 34.7419 12.0604 29.9656C12.1022 25.2286 15.8657 21.4639 20.49 21.4264L20.4493 26.0461C18.3505 26.1058 16.6253 27.8525 16.6063 30.0057C16.587 32.1981 18.3196 34.0144 20.4954 34.0336C22.6713 34.0528 24.4355 32.2673 24.4549 30.0749L24.6171 11.6747Z"></path></mask><path fill-rule="evenodd" clip-rule="evenodd" d="M13.141 7.48868C15.689 5.72068 18.444 5.12768 21.51 4.97168C26.131 5.29168 30.828 6.14568 34.906 8.45268C38.622 10.5557 40.305 12.5407 42.325 16.6117C43.772 19.5277 44.863 25.7727 44.054 28.9257C42.536 34.8427 38.47 40.3217 33.359 43.6667C28.876 46.5997 22.401 46.5117 17.224 45.1357C13.222 44.0717 9.60698 41.7697 6.68198 38.8387C5.09698 37.2507 3.67298 35.4247 2.98798 33.2877C2.41698 31.5067 2.38698 29.5977 2.51598 27.7317C3.05698 19.8847 6.53798 12.0707 13.141 7.48868ZM24.6171 11.6747L29.1631 11.7148C29.1327 15.16 31.7888 18.0024 35.2069 18.1499L35.1662 22.7696C32.9518 22.7109 30.8603 21.9486 29.1617 20.6807L29.0785 30.1157C29.0368 34.8528 25.1949 38.695 20.4936 38.6535C15.7922 38.6121 12.0183 34.7419 12.0604 29.9656C12.1022 25.2286 15.8657 21.4639 20.49 21.4264L20.4493 26.0461C18.3505 26.1058 16.6253 27.8525 16.6063 30.0057C16.587 32.1981 18.3196 34.0144 20.4954 34.0336C22.6713 34.0528 24.4355 32.2673 24.4549 30.0749L24.6171 11.6747Z" fill="#C2DEFF"></path><path d="M21.51 4.97168L21.5791 3.97407L21.5191 3.96992L21.4592 3.97297L21.51 4.97168ZM13.141 7.48868L12.5709 6.66709L12.5709 6.66711L13.141 7.48868ZM34.906 8.45268L35.3985 7.58238L35.3984 7.5823L34.906 8.45268ZM42.325 16.6117L41.4292 17.0562L41.4292 17.0562L42.325 16.6117ZM44.054 28.9257L43.0854 28.6771L43.0854 28.6772L44.054 28.9257ZM33.359 43.6667L33.9065 44.5035L33.9066 44.5034L33.359 43.6667ZM17.224 45.1357L16.967 46.1021L16.9671 46.1021L17.224 45.1357ZM6.68198 38.8387L7.38981 38.1323L7.38976 38.1322L6.68198 38.8387ZM2.98798 33.2877L3.94026 32.9824L3.94024 32.9824L2.98798 33.2877ZM2.51598 27.7317L3.5136 27.8006L3.51361 27.8005L2.51598 27.7317ZM29.1631 11.7148L30.1631 11.7236L30.1719 10.7237L29.1719 10.7148L29.1631 11.7148ZM24.6171 11.6747L24.626 10.6748L23.626 10.6659L23.6172 11.6659L24.6171 11.6747ZM35.2069 18.1499L36.2069 18.1588L36.2154 17.1926L35.2501 17.1509L35.2069 18.1499ZM35.1662 22.7696L35.1397 23.7692L36.1572 23.7962L36.1662 22.7784L35.1662 22.7696ZM29.1617 20.6807L29.7599 19.8793L28.1792 18.6994L28.1618 20.6719L29.1617 20.6807ZM29.0785 30.1157L30.0785 30.1245L29.0785 30.1157ZM20.4936 38.6535L20.5024 37.6536L20.4936 38.6535ZM12.0604 29.9656L11.0604 29.9568L12.0604 29.9656ZM20.49 21.4264L21.49 21.4353L21.499 20.4182L20.4819 20.4265L20.49 21.4264ZM20.4493 26.0461L20.4778 27.0457L21.4408 27.0182L21.4493 26.0549L20.4493 26.0461ZM16.6063 30.0057L17.6063 30.0145L16.6063 30.0057ZM20.4954 34.0336L20.4866 35.0335L20.4954 34.0336ZM24.4549 30.0749L25.4548 30.0837L24.4549 30.0749ZM21.4592 3.97297C18.2922 4.13411 15.3297 4.75283 12.5709 6.66709L13.7111 8.31027C16.0483 6.68853 18.5957 6.12125 21.5608 5.97039L21.4592 3.97297ZM35.3984 7.5823C31.1314 5.16841 26.2617 4.29834 21.5791 3.97407L21.4409 5.96929C26.0002 6.28502 30.5245 7.12295 34.4136 9.32306L35.3984 7.5823ZM43.2208 16.1672C42.1924 14.0947 41.2197 12.4903 39.9958 11.1263C38.766 9.75574 37.3213 8.67054 35.3985 7.58238L34.4135 9.32298C36.2067 10.3378 37.4615 11.2966 38.5072 12.462C39.5588 13.634 40.4375 15.0576 41.4292 17.0562L43.2208 16.1672ZM45.0226 29.1742C45.4779 27.3996 45.3826 24.8889 45.0241 22.5296C44.6633 20.1548 44.0076 17.7528 43.2208 16.1672L41.4292 17.0562C42.0894 18.3866 42.7027 20.5651 43.0468 22.83C43.3933 25.1105 43.439 27.2988 43.0854 28.6771L45.0226 29.1742ZM33.9066 44.5034C39.2151 41.0292 43.4393 35.3458 45.0226 29.1742L43.0854 28.6772C41.6327 34.3396 37.7249 39.6142 32.8114 42.8299L33.9066 44.5034ZM16.9671 46.1021C22.2639 47.51 29.0788 47.662 33.9065 44.5035L32.8115 42.8299C28.6732 45.5373 22.5381 45.5134 17.4809 44.1692L16.9671 46.1021ZM5.97415 39.5451C9.00078 42.5779 12.7654 44.985 16.967 46.1021L17.4809 44.1693C13.6786 43.1583 10.2132 40.9615 7.38981 38.1323L5.97415 39.5451ZM2.03571 33.5929C2.79093 35.949 4.34138 37.9092 5.97421 39.5451L7.38976 38.1322C5.85259 36.5922 4.55503 34.9004 3.94026 32.9824L2.03571 33.5929ZM1.51836 27.6627C1.38632 29.5727 1.40695 31.6318 2.03573 33.593L3.94024 32.9824C3.42702 31.3816 3.38765 29.6226 3.5136 27.8006L1.51836 27.6627ZM12.5709 6.66711C5.66024 11.4626 2.07481 19.5917 1.51835 27.6629L3.51361 27.8005C4.03916 20.1776 7.41573 12.6788 13.7111 8.31025L12.5709 6.66711ZM29.1719 10.7148L24.626 10.6748L24.6083 12.6747L29.1543 12.7148L29.1719 10.7148ZM35.2501 17.1509C32.3817 17.027 30.1373 14.6413 30.1631 11.7236L28.1631 11.706C28.1281 15.6786 31.1959 18.9777 35.1638 19.149L35.2501 17.1509ZM36.1662 22.7784L36.2069 18.1588L34.207 18.1411L34.1662 22.7608L36.1662 22.7784ZM28.5635 21.482C30.4223 22.8695 32.7123 23.7049 35.1397 23.7692L35.1927 21.7699C33.1914 21.7169 31.2983 21.0277 29.7599 19.8793L28.5635 21.482ZM30.0785 30.1245L30.1617 20.6895L28.1618 20.6719L28.0786 30.1068L30.0785 30.1245ZM20.4847 39.6535C25.7513 39.6999 30.032 35.4007 30.0785 30.1245L28.0786 30.1068C28.0415 34.3048 24.6384 37.69 20.5024 37.6536L20.4847 39.6535ZM11.0604 29.9568C11.0135 35.2752 15.221 39.6071 20.4847 39.6535L20.5024 37.6536C16.3633 37.6171 13.023 34.2086 13.0604 29.9744L11.0604 29.9568ZM20.4819 20.4265C15.3028 20.4685 11.1069 24.6832 11.0604 29.9568L13.0604 29.9744C13.0974 25.7739 16.4285 22.4594 20.4981 22.4264L20.4819 20.4265ZM21.4493 26.0549L21.49 21.4353L19.4901 21.4176L19.4493 26.0372L21.4493 26.0549ZM17.6063 30.0145C17.6206 28.3946 18.921 27.09 20.4778 27.0457L20.4208 25.0465C17.7799 25.1217 15.6301 27.3105 15.6064 29.9969L17.6063 30.0145ZM20.5042 33.0336C18.9005 33.0195 17.5917 31.6747 17.6063 30.0145L15.6064 29.9969C15.5824 32.7215 17.7386 35.0093 20.4866 35.0335L20.5042 33.0336ZM23.4549 30.0661C23.4403 31.7263 22.1079 33.0477 20.5042 33.0336L20.4866 35.0335C23.2346 35.0578 25.4308 32.8083 25.4548 30.0837L23.4549 30.0661ZM23.6172 11.6659L23.4549 30.0661L25.4548 30.0837L25.6171 11.6835L23.6172 11.6659Z" fill="black" mask="url(#svg3675643455-a)"></path></svg>