<svg viewBox="0 0 48 48" fill="none" xmlns="http://www.w3.org/2000/svg" width="100%"><path d="M11.9606 41.9171C12.2926 42.1641 12.6386 42.3911 13.0036 42.5891C13.9816 43.1181 15.0656 43.4171 16.1496 43.6631C23.0416 45.2291 31.2056 45.2661 36.8196 40.3541C43.0706 34.8841 46.4646 25.2621 44.1126 17.1801C43.8616 16.3171 43.5506 15.4721 43.2216 14.6351C42.7606 13.4611 42.2626 12.2971 41.6356 11.2021C36.8956 2.92706 24.7266 0.222059 16.5806 4.27006C15.5386 4.78806 14.5426 5.39406 13.5496 6.00006C11.2916 7.37606 9.3456 9.16906 7.5726 11.1311C2.5536 16.6851 1.0846 24.6891 3.3686 31.5021C4.5846 35.1301 7.5316 37.9111 10.3306 40.5201C10.8546 41.0081 11.3876 41.4911 11.9606 41.9171Z" fill="#C2DEFF"></path><path d="M24.051 45.1132C21.204 45.1132 18.438 44.6952 16.041 44.1502C14.963 43.9052 13.82 43.5982 12.767 43.0282C12.397 42.8272 12.037 42.5942 11.664 42.3182C11.105 41.9022 10.592 41.4452 9.99197 40.8852C7.26297 38.3442 4.17197 35.4632 2.89597 31.6602C0.502974 24.5262 2.19397 16.3362 7.20197 10.7952C9.25197 8.52619 11.243 6.81819 13.29 5.57119C14.283 4.96619 15.301 4.34619 16.358 3.82019C24.306 -0.127806 36.988 2.08419 42.07 10.9522C42.751 12.1402 43.269 13.3882 43.687 14.4512C43.963 15.1532 44.315 16.0832 44.593 17.0392C46.902 24.9722 43.772 34.9352 37.15 40.7282C33.359 44.0472 28.602 45.1132 24.051 45.1132ZM24.97 2.92519C22.045 2.92519 19.199 3.52819 16.804 4.71819C15.784 5.22419 14.785 5.83219 13.82 6.42019C11.848 7.62219 9.92897 9.27119 7.94497 11.4662C3.17497 16.7442 1.56597 24.5462 3.84397 31.3432C5.03897 34.9062 8.03197 37.6952 10.674 40.1552C11.249 40.6922 11.739 41.1292 12.261 41.5162H12.262C12.595 41.7642 12.916 41.9722 13.244 42.1502C14.19 42.6632 15.255 42.9472 16.263 43.1762C22.266 44.5402 30.646 45.0912 36.492 39.9782C42.836 34.4272 45.839 24.8982 43.633 17.3202C43.366 16.4022 43.025 15.5012 42.757 14.8182C42.353 13.7892 41.852 12.5842 41.203 11.4512C37.917 5.71619 31.263 2.92519 24.97 2.92519Z" fill="#010101"></path><path d="M33.956 16.7508C33.919 16.7198 33.886 16.6808 33.856 16.6328C33.744 16.4498 33.719 16.2288 33.654 16.0248C33.438 15.3428 32.774 14.8788 32.08 14.7038C31.386 14.5288 30.657 14.5928 29.944 14.6588C29.376 14.7108 28.8 14.7648 28.271 14.9778C27.713 15.2018 27.237 15.5898 26.814 16.0168C25.716 17.1258 24.916 18.5658 24.73 20.1158C24.704 20.3348 24.661 20.5968 24.459 20.6858C24.371 20.7248 24.271 20.7198 24.176 20.7118C21.667 20.5258 19.332 19.4168 17.064 18.3258C16.361 17.9878 15.649 17.6428 15.018 17.1778C14.733 16.9668 13.69 15.5988 13.534 16.2338C13.098 18.0108 13.362 19.9488 14.257 21.5448C14.47 21.9248 14.734 22.3018 15.122 22.4998C14.469 22.3958 13.815 22.2918 13.162 22.1878C13.1 22.5938 13.039 23.0198 13.176 23.4068C13.262 23.6478 13.418 23.8568 13.573 24.0608C14.018 24.6488 14.462 25.2358 14.907 25.8238C15.221 26.2388 15.54 26.6588 15.959 26.9678C16.377 27.2768 16.916 27.4628 17.423 27.3448C16.771 27.5338 16.079 27.5848 15.406 27.4948C15.595 28.4938 16.195 29.4078 17.036 29.9788C17.877 30.5498 18.948 30.7718 19.946 30.5808C19.561 31.1678 18.91 31.5188 18.272 31.8118C17.326 32.2468 16.347 32.6088 15.347 32.8958C14.829 33.0438 14.306 33.1718 13.778 33.2788C13.626 33.3098 13.027 33.3248 12.935 33.4308C12.843 33.5378 12.794 33.7978 13.035 33.8708C13.112 33.8948 13.189 33.9278 13.266 33.9528C16.37 34.9678 19.906 35.9448 23.179 35.2578C24.965 34.8828 26.607 34.0138 28.161 33.0578C28.939 32.5798 29.707 32.0718 30.359 31.4328C31.346 30.4638 32.028 29.2318 32.651 27.9968C33.32 26.6718 33.941 25.3148 34.391 23.8968C34.625 23.1598 34.813 22.4068 34.933 21.6428C34.981 21.3358 34.922 20.9308 34.976 20.6588C35.064 20.2178 35.55 20.2628 35.852 19.9358C36.516 19.2188 37.06 18.3918 37.456 17.4978C36.671 17.7448 36.031 18.3978 35.214 18.4918C35.875 17.7348 36.339 16.8068 36.549 15.8228C36.45 16.2878 35.316 16.6708 34.931 16.7538C34.624 16.8208 34.212 16.9708 33.956 16.7508Z" fill="#F5FDFF"></path><path d="M20.8745 35.9866C18.3055 35.9866 15.6495 35.2576 13.1105 34.4286L12.8895 34.3496C12.6415 34.2746 12.4585 34.0946 12.3895 33.8566C12.3155 33.6046 12.3805 33.3096 12.5545 33.1056C12.7425 32.8866 13.0405 32.8486 13.5105 32.8056C13.5825 32.7986 13.6455 32.7936 13.6825 32.7876C14.1935 32.6836 14.7035 32.5586 15.2085 32.4146C16.1845 32.1356 17.1445 31.7796 18.0625 31.3566C18.2375 31.2766 18.4125 31.1916 18.5795 31.0996C17.9305 31.0036 17.3025 30.7636 16.7545 30.3906C15.8005 29.7426 15.1295 28.7206 14.9145 27.5856C14.8845 27.4286 14.9325 27.2656 15.0425 27.1486C15.1025 27.0856 15.1755 27.0416 15.2545 27.0156C14.9665 26.7296 14.7275 26.4116 14.5075 26.1216L13.1755 24.3586C13.0175 24.1506 12.8205 23.8916 12.7055 23.5706C12.5225 23.0536 12.6035 22.5296 12.6685 22.1076C12.6895 21.9766 12.7605 21.8586 12.8675 21.7796C12.9745 21.7016 13.1085 21.6696 13.2405 21.6896L13.8195 21.7826C12.8645 20.0766 12.5835 18.0096 13.0485 16.1096C13.1425 15.7256 13.4165 15.6146 13.5305 15.5846C14.0525 15.4446 14.5345 15.9606 15.0475 16.5016C15.1605 16.6206 15.2555 16.7256 15.3165 16.7726C15.9205 17.2186 16.6425 17.5646 17.2805 17.8706C19.4835 18.9316 21.7625 20.0276 24.2105 20.2086C24.2145 20.1856 24.2235 20.1266 24.2325 20.0526C24.4205 18.4806 25.2115 16.9206 26.4575 15.6616C27.0185 15.0966 27.5345 14.7296 28.0835 14.5106C28.6875 14.2686 29.3305 14.2096 29.8975 14.1576C30.6085 14.0936 31.4145 14.0166 32.2015 14.2156C33.1425 14.4546 33.8825 15.0886 34.1305 15.8706C34.1535 15.9446 34.1725 16.0196 34.1925 16.0956C34.2185 16.2026 34.2445 16.3046 34.2795 16.3646C34.3575 16.3716 34.5585 16.3286 34.6695 16.3016L34.8235 16.2656C35.3105 16.1606 35.9735 15.8536 36.0705 15.6886C36.1295 15.4176 36.3955 15.2576 36.6585 15.3196C36.9295 15.3776 37.0965 15.6576 37.0385 15.9276C36.9325 16.4226 36.7675 16.9046 36.5515 17.3596C36.7875 17.2286 37.0345 17.1066 37.3075 17.0206C37.4935 16.9626 37.6995 17.0176 37.8295 17.1656C37.9605 17.3116 37.9935 17.5206 37.9135 17.7006C37.4935 18.6486 36.9245 19.5156 36.2205 20.2756C36.0315 20.4796 35.8085 20.5846 35.6465 20.6606C35.5825 20.6896 35.4855 20.7356 35.4625 20.7596C35.4495 20.8436 35.4515 20.9956 35.4535 21.1436C35.4555 21.3426 35.4545 21.5456 35.4275 21.7216C35.3105 22.4676 35.1215 23.2506 34.8675 24.0476C34.3645 25.6366 33.6575 27.1126 33.0975 28.2226C32.5035 29.3966 31.7815 30.7376 30.7085 31.7886C30.0205 32.4656 29.2025 33.0026 28.4225 33.4826C26.9795 34.3716 25.2395 35.3356 23.2805 35.7476C22.4925 35.9136 21.6885 35.9866 20.8745 35.9866ZM14.1525 33.7116C17.0135 34.6156 20.1485 35.3836 23.0765 34.7696C24.8855 34.3886 26.5295 33.4756 27.8995 32.6316C28.7435 32.1116 29.4245 31.6496 30.0075 31.0756C30.9725 30.1296 31.6475 28.8736 32.2045 27.7706C32.7465 26.6956 33.4315 25.2656 33.9135 23.7446C34.1515 22.9956 34.3285 22.2626 34.4375 21.5646C34.4585 21.4396 34.4535 21.2936 34.4525 21.1536C34.4505 20.9556 34.4475 20.7506 34.4855 20.5616C34.5875 20.0506 34.9835 19.8656 35.2195 19.7536C35.3315 19.7016 35.4285 19.6566 35.4845 19.5956C35.7495 19.3106 35.9925 19.0086 36.2135 18.6916C35.9255 18.8346 35.6175 18.9486 35.2715 18.9896C35.0545 19.0096 34.8675 18.9076 34.7715 18.7246C34.6745 18.5416 34.7015 18.3196 34.8365 18.1626C35.1235 17.8346 35.3695 17.4726 35.5685 17.0856C35.2685 17.1906 35.0405 17.2406 35.0345 17.2426L34.9065 17.2726C34.5625 17.3556 34.0435 17.4856 33.6285 17.1276C33.6285 17.1276 33.6275 17.1276 33.6275 17.1266C33.5515 17.0616 33.4845 16.9816 33.4295 16.8916C33.3115 16.7026 33.2615 16.4986 33.2215 16.3366C33.2075 16.2806 33.1945 16.2266 33.1775 16.1726C33.0045 15.6296 32.4335 15.3066 31.9565 15.1856C31.3395 15.0296 30.6525 15.0916 29.9895 15.1546C29.4655 15.2026 28.9245 15.2516 28.4555 15.4386C28.0375 15.6066 27.6285 15.9016 27.1685 16.3656C26.0785 17.4676 25.3885 18.8196 25.2255 20.1726C25.1985 20.4006 25.1345 20.9316 24.6605 21.1406C24.4515 21.2326 24.2465 21.2186 24.1355 21.2066C21.5025 21.0126 19.0305 19.8226 16.8485 18.7726C16.1725 18.4486 15.4055 18.0806 14.7225 17.5776C14.6365 17.5146 14.4925 17.3676 14.3245 17.1906C14.2345 17.0956 14.0775 16.9296 13.9295 16.7906C13.6625 18.3216 13.9345 19.9416 14.6955 21.2986C14.8485 21.5716 15.0615 21.9036 15.3515 22.0526C15.5705 22.1636 15.6755 22.4186 15.5995 22.6526C15.5235 22.8866 15.2945 23.0266 15.0455 22.9926L13.5985 22.7626C13.5895 22.9336 13.5995 23.0986 13.6495 23.2396C13.7115 23.4136 13.8445 23.5896 13.9725 23.7586L15.3065 25.5226C15.5945 25.9036 15.8915 26.2966 16.2565 26.5666C16.6035 26.8206 16.9925 26.9286 17.3115 26.8586C17.5715 26.7976 17.8395 26.9586 17.9085 27.2196C17.9755 27.4826 17.8235 27.7506 17.5625 27.8256C17.0855 27.9636 16.5845 28.0346 16.0855 28.0376C16.3355 28.6526 16.7655 29.1906 17.3175 29.5666C18.0535 30.0666 18.9765 30.2576 19.8515 30.0896C20.0495 30.0546 20.2485 30.1356 20.3605 30.3026C20.4725 30.4696 20.4735 30.6866 20.3635 30.8546C19.9145 31.5426 19.1935 31.9396 18.4815 32.2666C17.5165 32.7106 16.5075 33.0846 15.4845 33.3766C15.0445 33.5026 14.6005 33.6136 14.1525 33.7116Z" fill="#010101"></path></svg>